<?xml version="1.0" encoding="utf-8"?>
<!-- Generator: Adobe Illustrator 27.5.0, SVG Export Plug-In . SVG Version: 6.00 Build 0)  -->
<svg version="1.1" xmlns="http://www.w3.org/2000/svg" xmlns:xlink="http://www.w3.org/1999/xlink" x="0px" y="0px"
	 viewBox="0 0 500 500" style="enable-background:new 0 0 500 500;" xml:space="preserve">
<g id="BACKGROUND">
</g>
<g id="OBJECTS">
	<g>
		<path d="M129.066,238.654c0.052-0.008,0.104-0.013,0.156-0.017c-0.02-0.105-0.04-0.209-0.06-0.314
			C129.13,238.434,129.098,238.544,129.066,238.654z"/>
		<path d="M240.609,298.973c0.252,0.153,0.512,0.287,0.776,0.416c0.197,0.095,0.395,0.188,0.6,0.268
			c0.236,0.092,0.476,0.173,0.714,0.259c0.47,0.169,0.936,0.35,1.424,0.467c0.319,0.076,0.641,0.134,0.965,0.175
			c0.132,0.486,0.253,0.974,0.353,1.469c0.155,0.877,0.211,1.764,0.327,2.647c0.063,0.477,0.131,0.952,0.207,1.427
			c0.071,0.438,0.154,0.878,0.189,1.32c0.006,0.124,0.005,0.247-0.004,0.372c-0.008,0.101-0.018,0.202-0.009,0.304
			c0.013,0.149,0.053,0.336,0.219,0.382c0.023,0.006,0.046,0.009,0.067,0.009c0.069,0,0.126-0.031,0.172-0.077
			c0.007,0.001,0.014,0.002,0.021,0.002c0.075,0,0.153-0.049,0.158-0.144c0-0.007,0.001-0.014,0.002-0.019
			c0.01-0.05,0.022-0.1,0.033-0.15c0.002-0.007,0.004-0.014,0.006-0.021c0.145-0.293,0.259-0.605,0.38-0.909
			c0.149-0.372,0.292-0.738,0.388-1.129c0.173-0.702,0.3-1.418,0.408-2.132c0-0.001,0-0.002,0.001-0.003
			c0-0.003,0.001-0.007,0.002-0.011c0.011-0.065,0.02-0.132,0.03-0.197c0.002-0.014,0.004-0.028,0.007-0.042
			c0.001-0.004,0.001-0.009,0.002-0.013c0.075-0.457,0.165-0.908,0.22-1.368c0.043-0.367,0.082-0.738,0.095-1.107
			c0.008-0.266,0.016-0.534,0.012-0.801c0.27-0.092,0.528-0.218,0.753-0.394c0.308-0.241,0.579-0.533,0.865-0.8
			c0.396-0.368,0.793-0.753,1.095-1.205c0.158-0.236,0.307-0.479,0.408-0.747c0.132-0.348,0.202-0.711,0.168-1.083
			c-0.044-0.464-0.3-0.925-0.732-1.133c-0.267-0.128-0.539-0.189-0.83-0.238c-0.481-0.081-0.96-0.154-1.448-0.183
			c-0.579-0.034-1.158-0.023-1.735,0.031c-0.416,0.039-0.831,0.095-1.243,0.167c-0.023,0.003-0.048,0.006-0.071,0.008
			c-1.114,0.133-2.241,0.307-3.296,0.699c-0.467,0.173-0.929,0.375-1.362,0.622c-0.431,0.246-0.881,0.535-1.109,0.994
			c-0.104,0.21-0.158,0.416-0.157,0.652c0.002,0.243,0.096,0.472,0.238,0.665C240.093,298.66,240.364,298.824,240.609,298.973z"/>
		<path d="M262.273,298.343c0.859,0.41,1.855,0.446,2.792,0.452c0.037,0,0.073,0.001,0.109,0.001c0.762,0,1.534-0.052,2.28-0.211
			c0.522-0.111,1.043-0.223,1.557-0.361c0.415-0.112,0.831-0.208,1.227-0.383c0.366-0.162,0.7-0.357,0.992-0.636
			c0.475-0.454,0.743-1.079,0.734-1.737c-0.009-0.649-0.245-1.318-0.731-1.768c-0.243-0.227-0.498-0.431-0.785-0.601
			c-0.232-0.136-0.473-0.263-0.724-0.361c-0.38-0.148-0.752-0.236-1.152-0.282c-0.354-0.029-0.706-0.043-1.062-0.027
			c-0.258,0.012-0.516,0.065-0.771,0.101c-0.389,0.053-0.778,0.13-1.162,0.217c-0.207,0.028-0.413,0.062-0.618,0.103
			c-0.42,0.084-0.825,0.224-1.224,0.381c-0.681,0.267-1.371,0.542-1.99,0.935c-0.043,0.028-0.085,0.056-0.126,0.086
			c-0.211,0.156-0.375,0.353-0.523,0.567c-0.177,0.256-0.298,0.562-0.342,0.871c-0.074,0.524-0.012,1.082,0.27,1.54
			C261.329,297.729,261.744,298.09,262.273,298.343z"/>
		<path d="M201.488,292.249c0.005-0.002,0.011-0.003,0.016-0.004c0.014-0.004,0.028-0.01,0.043-0.014
			C201.527,292.236,201.507,292.242,201.488,292.249z"/>
		<path d="M211.484,296.38c0.003-0.284-0.013-0.599-0.094-0.874c-0.114-0.383-0.261-0.712-0.477-1.047
			c-0.272-0.421-0.702-0.82-1.149-1.055c-0.413-0.217-0.843-0.435-1.298-0.553c-0.106-0.027-0.213-0.049-0.319-0.069
			c-0.165-0.103-0.337-0.196-0.521-0.277c-0.411-0.181-0.85-0.308-1.286-0.416c-0.543-0.135-1.07-0.224-1.63-0.258
			c-0.416-0.025-0.834-0.023-1.25,0.002c-0.673,0.042-1.318,0.219-1.957,0.412c-0.317,0.095-0.644,0.181-0.948,0.312
			c-0.498,0.215-0.932,0.471-1.34,0.832c-0.546,0.481-0.908,1.178-1.039,1.886c-0.195,1.054,0.224,2.117,0.948,2.88
			c0.936,0.987,2.266,1.424,3.574,1.645c0.543,0.092,1.097,0.168,1.649,0.168c0.012,0,0.023,0,0.035,0
			c0.355-0.002,0.715-0.009,1.068-0.053c0.24-0.03,0.48-0.07,0.72-0.107c0.794-0.121,1.595-0.167,2.385-0.304
			c0.32-0.056,0.638-0.153,0.935-0.284c0.623-0.276,1.184-0.613,1.536-1.23C211.298,297.512,211.479,296.935,211.484,296.38z"/>
		<path d="M217.245,317.742c1.005-0.79,2.026-1.557,3.068-2.299c1.509-1.049,3.043-2.051,4.631-2.977
			c1.14-0.664,2.284-1.323,3.446-1.947c1.16-0.624,2.325-1.239,3.492-1.849c0.214-0.111,0.43-0.22,0.645-0.329
			c0.58-0.293,1.171-0.566,1.761-0.842c0.58-0.271,1.16-0.542,1.748-0.797c0.575-0.248,1.153-0.484,1.727-0.733
			c0.262-0.114,0.528-0.234,0.772-0.385c0.151-0.095,0.372-0.219,0.389-0.419c0.02-0.239-0.225-0.311-0.414-0.311
			c-0.249,0-0.496,0.046-0.738,0.096c-0.565,0.116-1.115,0.3-1.663,0.477c-1.15,0.372-2.292,0.774-3.419,1.211
			c-2.506,0.973-4.964,2.062-7.348,3.305c-0.964,0.502-1.925,1.014-2.848,1.585c-1.169,0.723-2.303,1.496-3.395,2.33
			c-0.505,0.385-1.01,0.772-1.498,1.179c-0.518,0.434-1.03,0.874-1.537,1.319c-0.5,0.44-0.992,0.888-1.482,1.341
			c-0.465,0.429-0.933,0.856-1.387,1.298c-0.929,0.899-1.839,1.832-2.602,2.878c-0.179,0.246-0.145,0.599,0.075,0.808
			c0.115,0.111,0.276,0.17,0.434,0.17c0.136,0,0.271-0.044,0.378-0.136c0.954-0.824,1.891-1.666,2.834-2.503
			C215.269,319.362,216.24,318.532,217.245,317.742z"/>
		<path d="M236.046,312.177c0.46-0.394,0.911-0.797,1.363-1.201c0.199-0.178,0.399-0.354,0.598-0.533
			c0.11-0.1,0.228-0.199,0.327-0.311c0.115-0.066,0.17-0.224,0.093-0.35c-0.078-0.128-0.262-0.154-0.374-0.066
			c-0.044,0.018-0.086,0.039-0.127,0.06c-0.122,0.062-0.24,0.131-0.358,0.2c-0.256,0.15-0.508,0.306-0.756,0.47
			c-0.566,0.37-1.118,0.759-1.659,1.163c-1.973,1.47-3.886,3.036-5.697,4.702c0.005-0.005,0.01-0.01,0.015-0.015
			c-0.006,0.006-0.012,0.012-0.019,0.017c-0.001,0.002-0.003,0.003-0.004,0.004c-0.058,0.054-0.116,0.107-0.173,0.16
			c-0.155,0.142-0.307,0.286-0.461,0.431c-0.884,0.833-1.742,1.7-2.57,2.589c-0.867,0.929-1.706,1.886-2.504,2.875
			c-1.568,1.942-3.064,3.95-4.391,6.066c-0.552,0.882-1.078,1.782-1.577,2.694c-0.603,1.103-1.148,2.235-1.65,3.388
			c-0.241,0.553-0.459,1.109-0.642,1.684c-0.179,0.563-0.331,1.133-0.497,1.7c-0.223,0.732-0.482,1.45-0.727,2.174
			c-0.102,0.303,0.039,0.64,0.346,0.755c0.065,0.024,0.132,0.035,0.199,0.035c0.24,0,0.477-0.144,0.557-0.381
			c0.242-0.714,0.493-1.424,0.795-2.116c0.192-0.415,0.397-0.826,0.597-1.237c0.199-0.409,0.394-0.821,0.593-1.23
			c0.536-1.106,1.094-2.205,1.69-3.28c0.58-1.045,1.183-2.077,1.81-3.095c0.315-0.505,0.639-1.001,0.974-1.493
			c0.702-1.03,1.424-2.047,2.17-3.044c0.719-0.962,1.449-1.916,2.214-2.842c0.643-0.77,1.302-1.525,1.976-2.269
			c0.837-0.923,1.672-1.846,2.543-2.737c0.849-0.871,1.72-1.722,2.614-2.548C234.225,313.778,235.126,312.965,236.046,312.177z"/>
		<path d="M257.421,305.405c0.006,0.001,0.01,0.002,0.016,0.003c0.092,0.013,0.184,0.013,0.278,0.012
			c0.154-0.001,0.308-0.002,0.462-0.003c0.334-0.003,0.669-0.01,1.003-0.012c0.671-0.003,1.342,0.015,2.012,0.035
			c0.257,0.009,0.514,0.019,0.771,0.032c1.832,0.091,3.661,0.303,5.471,0.591c0.642,0.108,1.284,0.224,1.92,0.362
			c1.811,0.393,3.61,0.842,5.389,1.362c0.721,0.217,1.435,0.449,2.142,0.71c0.672,0.25,1.335,0.525,1.989,0.819
			c0.089,0.041,0.177,0.082,0.264,0.125c0.82,0.404,1.615,0.852,2.407,1.308c0.763,0.438,1.53,0.874,2.278,1.337
			c0.193,0.122,0.383,0.245,0.573,0.371c0.11,0.072,0.23,0.115,0.358,0.115c0.03,0,0.061-0.003,0.093-0.008
			c0.157-0.026,0.301-0.114,0.394-0.244c0.188-0.26,0.137-0.661-0.137-0.845c-0.023-0.015-0.046-0.031-0.069-0.046
			c-0.769-0.515-1.548-1.022-2.358-1.472c-0.798-0.445-1.611-0.866-2.438-1.253c-1.681-0.785-3.426-1.435-5.206-1.957
			c-0.111-0.034-0.223-0.067-0.334-0.1c-0.454-0.136-0.912-0.263-1.37-0.383c-0.918-0.242-1.841-0.465-2.768-0.671
			c-0.882-0.195-1.769-0.373-2.662-0.513c-1.851-0.291-3.714-0.47-5.587-0.52c-0.912-0.024-1.829-0.013-2.741,0.035
			c-0.449,0.023-0.897,0.06-1.341,0.131c-0.205,0.032-0.409,0.071-0.611,0.117c-0.109,0.025-0.212,0.059-0.303,0.121
			c-0.115,0.056-0.167,0.214-0.096,0.33C257.265,305.368,257.343,305.405,257.421,305.405z"/>
		<path d="M275.016,306.742c0.007,0.002,0.013,0.005,0.02,0.007c0.016,0.005,0.032,0.009,0.048,0.014
			C275.061,306.756,275.039,306.748,275.016,306.742z"/>
		<path d="M274.784,320.786c-0.195-0.353-0.411-0.691-0.638-1.023c-0.481-0.702-1.005-1.378-1.569-2.016
			c-0.561-0.635-1.149-1.248-1.751-1.845c-0.623-0.616-1.269-1.205-1.945-1.764c-0.035-0.03-0.07-0.059-0.105-0.088
			c-0.006-0.005-0.012-0.009-0.018-0.014c-0.542-0.451-1.106-0.876-1.678-1.289c-0.553-0.4-1.122-0.781-1.701-1.142
			c-0.597-0.373-1.202-0.729-1.827-1.057c-0.786-0.413-1.598-0.775-2.422-1.105c-0.8-0.321-1.612-0.613-2.437-0.859
			c-0.158-0.048-0.317-0.097-0.48-0.126c-0.115-0.021-0.282-0.061-0.374,0.036c-0.09,0.095-0.034,0.22,0.041,0.302
			c0.095,0.104,0.213,0.184,0.33,0.26c0.299,0.193,0.615,0.359,0.931,0.522c0.375,0.192,0.757,0.372,1.134,0.558
			c0.392,0.192,0.781,0.385,1.17,0.583c0.765,0.387,1.511,0.808,2.247,1.249c0.089,0.055,0.177,0.111,0.265,0.166
			c0.69,0.44,1.366,0.899,2.026,1.382c0.651,0.477,1.285,0.978,1.91,1.49c0.516,0.43,1.028,0.865,1.52,1.324
			c0.496,0.461,0.969,0.943,1.43,1.439c0.039,0.042,0.077,0.084,0.116,0.125c0.342,0.375,0.671,0.762,0.996,1.152
			c0.334,0.4,0.655,0.811,0.957,1.236c0.004,0.006,0.008,0.012,0.013,0.018c0.243,0.352,0.473,0.712,0.701,1.074
			c0.237,0.378,0.462,0.765,0.708,1.137c0.112,0.169,0.296,0.271,0.489,0.271c0.075,0,0.15-0.016,0.224-0.048
			c0.25-0.111,0.401-0.412,0.313-0.677c-0.023-0.067-0.047-0.134-0.071-0.2C275.152,321.488,274.973,321.13,274.784,320.786z"/>
		<path d="M311.659,310.575c-0.005,0.04-0.015,0.079-0.02,0.119c-0.002,0.014,0.001,0.029-0.001,0.043
			C311.645,310.684,311.651,310.63,311.659,310.575z"/>
		<path d="M160.717,365.852c0.013-0.015,0.027-0.03,0.041-0.045c0.039-0.045,0.078-0.09,0.117-0.135
			C160.822,365.732,160.77,365.792,160.717,365.852z"/>
		<path d="M295.03,325.81c-0.016,0.007-0.032,0.012-0.047,0.019c-0.04,0.017-0.079,0.035-0.118,0.052
			C294.919,325.856,294.975,325.833,295.03,325.81z"/>
		<path d="M418.516,219.354c-0.16-1.255-0.447-2.504-0.902-3.685c-0.438-1.139-0.936-2.252-1.529-3.319
			c-0.273-0.492-0.578-0.963-0.856-1.45c-0.238-0.414-0.477-0.825-0.728-1.23c-0.181-0.29-0.347-0.59-0.525-0.883
			c-0.012-0.019-0.023-0.038-0.034-0.057c0.102,0,0.204,0,0.306,0.001c0.2,0,0.401,0.001,0.602-0.002
			c0.544-0.01,1.229,0.012,1.678-0.342c0.36-0.285,0.509-0.735,0.339-1.171c-0.104-0.267-0.296-0.5-0.469-0.724
			c-0.239-0.311-0.497-0.599-0.789-0.861c-0.369-0.332-0.787-0.619-1.196-0.899c-0.471-0.323-0.96-0.625-1.44-0.936
			c-0.547-0.354-1.1-0.697-1.657-1.036c-0.998-0.606-2.01-1.19-3.047-1.726c-0.486-0.251-0.97-0.503-1.469-0.724
			c-0.554-0.245-1.118-0.463-1.683-0.68c-1.28-0.492-2.555-0.995-3.877-1.366c-1.18-0.331-2.389-0.556-3.599-0.753
			c-1.313-0.214-2.645-0.368-3.975-0.415c-2.673-0.093-5.347,0.111-7.979,0.578c-1.263,0.224-2.527,0.451-3.772,0.769
			c-1.207,0.308-2.399,0.672-3.585,1.054c-1.308,0.42-2.61,0.85-3.891,1.347c-1.273,0.494-2.524,1.051-3.742,1.667
			c-2.145,1.087-4.17,2.379-6.163,3.716c-1.089,0.73-2.163,1.48-3.168,2.323c-0.493,0.414-0.969,0.847-1.447,1.279
			c0.096-0.323,0.191-0.646,0.288-0.969c0.169-0.558,0.366-1.181,0.064-1.731c-0.22-0.402-0.682-0.575-1.118-0.46
			c-0.264,0.07-0.505,0.204-0.724,0.365c-0.685,0.5-1.297,1.097-1.878,1.71c-0.485,0.513-0.957,1.041-1.423,1.572
			c-0.396,0.452-0.76,0.936-1.133,1.408c-0.32,0.403-0.634,0.811-0.956,1.211c-0.357,0.446-0.726,0.882-1.066,1.341
			c-0.382,0.516-0.747,1.046-1.108,1.576c-0.376,0.552-0.754,1.106-1.083,1.687c-1.267,2.239-2.393,4.577-3.316,6.979
			c-0.52,1.351-0.981,2.722-1.388,4.111c-0.368,1.258-0.718,2.523-0.969,3.81c-0.501,2.568-0.923,5.167-1.063,7.781
			c-0.07,1.296-0.128,2.6-0.122,3.898c0.005,1.259,0.107,2.513,0.227,3.765c0.259,2.707,0.672,5.4,1.151,8.075
			c0.221,1.236,0.468,2.464,0.718,3.695c0.114,0.561,0.226,1.123,0.341,1.684c0.127,0.615,0.278,1.226,0.397,1.844
			c0.155,0.888,0.306,1.778,0.445,2.669c0.161,1.022,0.28,2.051,0.433,3.074c0.174,1.17,0.388,2.333,0.553,3.505
			c0.141,0.999,0.253,2.001,0.358,3.005c0.112,1.063,0.201,2.134,0.36,3.19c0.17,1.128,0.37,2.251,0.57,3.373
			c0.381,2.135,0.805,4.271,0.942,6.439c0.023,0.525,0.025,1.05,0.029,1.575c0.005,0.577,0.013,1.153-0.004,1.73
			c-0.017,0.582-0.051,1.162-0.05,1.744c0.002,0.596,0.047,1.191,0.082,1.786c0.02,0.468,0.032,0.934,0.006,1.401
			c-0.075,0.656-0.207,1.303-0.314,1.954c-0.114,0.697-0.185,1.402-0.279,2.103c-0.178,1.346-0.427,2.675-0.709,4.002
			c-0.204,0.913-0.435,1.812-0.743,2.696c-0.254,0.67-0.549,1.319-0.857,1.967c-0.316,0.666-0.625,1.336-0.964,1.993
			c-0.456,0.86-0.926,1.711-1.379,2.573c-0.398,0.752-0.82,1.488-1.304,2.189c-0.443,0.641-0.882,1.287-1.331,1.925
			c-0.834,1.153-1.67,2.303-2.627,3.36c-0.278,0.291-0.578,0.574-0.852,0.875c-0.522-0.286-1.049-0.559-1.588-0.814
			c-0.948-0.448-1.912-0.863-2.875-1.279c-0.933-0.402-1.868-0.8-2.807-1.186c-0.52-0.214-1.043-0.416-1.57-0.612
			c-0.507-0.188-1.007-0.392-1.519-0.566c-4.225-1.435-8.673-2.019-13.124-1.983c-0.68,0.009-1.359,0.032-2.037,0.071
			c-0.938,0.054-1.87,0.146-2.801,0.274c-0.562,0.076-1.125,0.154-1.685,0.245c0.43-0.497,0.839-1.011,1.238-1.53
			c0.308-0.391,0.638-0.763,0.931-1.168c0.423-0.588,0.742-1.225,1.024-1.89c-0.01,0.025-0.02,0.049-0.03,0.073
			c0.014-0.033,0.027-0.066,0.041-0.099c0.002-0.005,0.004-0.009,0.006-0.014c0-0.001,0-0.002,0.001-0.003
			c0-0.001,0.001-0.001,0.001-0.002c0.001-0.003,0.003-0.006,0.003-0.009c0.091-0.223,0.171-0.44,0.233-0.677
			c0.038-0.145,0.054-0.296,0.073-0.445c0.039-0.321,0.067-0.649,0.031-0.973c-0.016-0.141-0.039-0.277-0.075-0.41
			c0.09-0.048,0.178-0.1,0.262-0.159c0.275-0.058,0.553-0.102,0.828-0.162c0.407-0.086,0.798-0.203,1.18-0.367
			c0.551-0.236,1.051-0.55,1.526-0.914c0.489-0.374,0.988-0.867,1.13-1.486c0.069-0.301,0.054-0.611,0.004-0.913
			c-0.06-0.352-0.218-0.638-0.447-0.894c-0.147-0.214-0.276-0.444-0.421-0.661c-0.156-0.232-0.325-0.457-0.472-0.695
			c-0.027-0.216-0.055-0.424-0.165-0.625c-0.072-0.132-0.143-0.265-0.214-0.398c-0.094-0.18-0.193-0.357-0.293-0.533
			c-0.223-0.389-0.437-0.782-0.64-1.181c-0.24-0.471-0.463-0.951-0.691-1.428c-0.259-0.543-0.54-1.075-0.784-1.626
			c-0.33-0.814-0.588-1.653-0.843-2.492c-0.388-1.271-0.815-2.53-1.219-3.795c-0.533-1.666-1.188-3.289-1.783-4.933
			c-1.201-3.321-2.292-6.678-3.25-10.077c-0.588-2.148-1.083-4.32-1.566-6.494c-0.2-0.902-0.388-1.807-0.565-2.714
			c0.03-0.22,0.062-0.44,0.095-0.661c0.195-1.201,0.496-2.385,0.762-3.572c0.262-1.17,0.535-2.336,0.866-3.487
			c0.428-1.434,0.854-2.869,1.278-4.305c0.229-0.775,0.459-1.552,0.686-2.329c1.176-3.876,3.057-7.487,4.405-11.301
			c0.749-2.12,1.489-4.243,2.194-6.378c0.339-1.028,0.691-2.052,1.029-3.08c0.359-1.093,0.719-2.185,1.109-3.267
			c0.394-1.088,0.831-2.163,1.177-3.267c0.305-0.973,0.615-1.945,0.906-2.921c0.336-1.126,0.664-2.255,0.956-3.393
			c0.275-1.072,0.495-2.158,0.704-3.244c0.837-4.355,1.465-8.754,1.73-13.183c0.132-2.215,0.171-4.441,0.169-6.66
			c-0.002-2.316-0.062-4.632-0.178-6.944c-0.112-2.232-0.274-4.474-0.568-6.689c-0.14-1.055-0.277-2.119-0.523-3.156
			c-0.138-0.583-0.286-1.164-0.466-1.735c-0.086-0.271-0.178-0.541-0.279-0.807c-0.121-0.314-0.234-0.643-0.398-0.939
			c-0.397-0.714-0.826-1.401-1.434-1.957c-0.226-0.208-0.466-0.406-0.728-0.569c-0.327-0.202-0.682-0.427-1.052-0.542
			c-0.396-0.123-0.798-0.229-1.216-0.243c-0.424-0.015-0.806-0.007-1.227,0.064c-0.507,0.084-1.008,0.235-1.498,0.391
			c-1.086,0.347-2.149,0.767-3.207,1.193c-0.815,0.329-1.624,0.676-2.425,1.042c-3.934,1.797-7.682,3.983-11.264,6.403
			c-0.1,0.068-0.2,0.136-0.3,0.204c-0.003,0.002-0.004,0.003-0.006,0.003c-0.01,0.007-0.021,0.013-0.031,0.019
			c-0.029,0.016-0.058,0.033-0.087,0.05c-1.099,0.642-2.168,1.331-3.215,2.055c-1.07,0.739-2.083,1.556-3.073,2.398
			c-1.992,1.694-3.935,3.445-5.827,5.251c-0.968,0.923-1.921,1.863-2.883,2.792c-0.934,0.902-1.899,1.777-2.876,2.633
			c-0.988,0.866-1.999,1.706-3.013,2.542c-1.014,0.836-2.037,1.66-3.077,2.465c-1.045,0.8-2.107,1.574-3.17,2.35
			c-0.738,0.539-1.482,1.072-2.216,1.618c-0.07-0.033-0.141-0.064-0.212-0.096c-1.289-0.571-2.599-1.104-3.918-1.603
			c-3.487-1.319-7.051-2.426-10.652-3.382c-1.952-0.518-3.925-0.982-5.91-1.354c-2.014-0.378-4.036-0.699-6.064-0.98
			c-1.818-0.252-3.641-0.471-5.462-0.683c-1.835-0.214-3.67-0.424-5.509-0.586c-3.629-0.321-7.273-0.474-10.914-0.581
			c-3.865-0.113-7.729-0.041-11.591,0.137c-3.935,0.182-7.869,0.391-11.792,0.751c-1.906,0.175-3.809,0.378-5.711,0.593
			c-2.094,0.237-4.187,0.475-6.276,0.753c-1.912,0.256-3.816,0.578-5.715,0.918c-0.366-0.352-0.728-0.706-1.078-1.076
			c-0.477-0.507-0.965-1.002-1.447-1.505c-1.517-1.589-3.031-3.178-4.519-4.795c-0.769-0.835-1.525-1.68-2.292-2.515
			c-0.731-0.794-1.465-1.585-2.19-2.385c-1.505-1.681-2.986-3.38-4.447-5.1c-1.395-1.644-2.782-3.298-4.114-4.994
			c-1.331-1.693-2.641-3.412-3.868-5.183c-0.926-1.371-1.796-2.771-2.622-4.202c-0.422-0.73-0.844-1.46-1.264-2.19
			c-0.188-0.327-0.372-0.656-0.572-0.976c-0.221-0.353-0.458-0.696-0.694-1.039c-0.004-0.006-0.008-0.012-0.013-0.018
			c-0.062-0.095-0.129-0.189-0.201-0.294c-0.166-0.241-0.331-0.481-0.497-0.723c-0.441-0.647-0.878-1.299-1.356-1.921
			c-0.258-0.337-0.525-0.662-0.811-0.975c-0.314-0.342-0.67-0.648-1.033-0.937c-0.413-0.327-0.856-0.613-1.345-0.812
			c-0.348-0.142-0.698-0.24-1.068-0.3c-0.423-0.069-0.844-0.04-1.267,0.008c-0.301,0.034-0.676,0.15-0.95,0.275
			c-0.21,0.095-0.426,0.192-0.621,0.315c-0.194,0.122-0.383,0.252-0.571,0.383c-0.189,0.132-0.364,0.284-0.537,0.436
			c-1.009,0.893-1.846,1.935-2.522,3.101c-0.615,1.06-1.125,2.177-1.626,3.294c-0.446,0.992-0.86,1.999-1.268,3.008
			c-1.668,4.131-3.073,8.356-4.439,12.594c-0.68,2.108-1.349,4.22-2.04,6.324c-0.718,2.184-1.462,4.359-2.216,6.531
			c-0.707,2.035-1.428,4.066-2.14,6.1c-0.756,2.163-1.505,4.333-2.118,6.542c-0.296,1.069-0.578,2.143-0.803,3.23
			c-0.247,1.197-0.42,2.404-0.553,3.617c-0.257,2.326-0.35,4.673-0.28,7.012c0.069,2.315,0.272,4.614,0.596,6.908
			c0.307,2.171,0.698,4.32,1.392,6.406c0.362,1.087,0.737,2.174,1.134,3.249c0.338,0.919,0.728,1.817,1.077,2.732
			c0.203,0.529,0.405,1.058,0.612,1.585c0.369,1.423,0.743,2.847,1.201,4.244c-0.04,0.246-0.079,0.493-0.112,0.741
			c-0.208,1.594-0.417,3.188-0.632,4.782c-0.119,0.887-0.209,1.778-0.353,2.661c-0.13,0.803-0.295,1.6-0.47,2.395
			c-0.282,1.245-0.598,2.478-0.962,3.702c-0.332,1.118-0.667,2.231-1.059,3.328c-0.251,0.688-0.502,1.374-0.763,2.057
			c-0.268,0.701-0.566,1.388-0.873,2.072c-1.454,3.244-2.985,6.458-4.612,9.618c-0.358,0.686-0.724,1.368-1.093,2.049
			c-0.873,1.617-1.746,3.232-2.687,4.811c-0.475,0.797-0.954,1.592-1.409,2.4c-0.438,0.777-0.862,1.562-1.295,2.343
			c-0.494,0.891-0.994,1.778-1.489,2.668c-0.16,0.204-0.316,0.413-0.468,0.623c-0.485,0.671-0.936,1.366-1.35,2.083
			c-0.456,0.79-0.798,1.639-1.144,2.482c-0.446,1.085-0.802,2.19-1.069,3.334c-0.122,0.523-0.209,1.048-0.288,1.579
			c-0.087,0.578-0.179,1.155-0.245,1.737c-0.055,0.482-0.078,0.966-0.096,1.45c-0.017,0.467-0.045,0.932-0.048,1.4
			c-0.004,0.507,0.016,1.015,0.023,1.524c0.004,0.223,0.003,0.447,0.022,0.671c0.022,0.265,0.092,0.518,0.164,0.77
			c0.019,0.085,0.035,0.171,0.049,0.258c0.121,1.109,0.108,2.249,0.636,3.262c0.204,0.393,0.449,0.804,0.874,0.991
			c0.573,0.251,1.202,0.136,1.665-0.281c0.505-0.456,0.764-1.052,1.045-1.654c0.293-0.63,0.62-1.242,0.937-1.859
			c0.198-0.385,0.389-0.77,0.591-1.151c0.039,0.168,0.079,0.335,0.119,0.502c0.439,1.847,0.996,3.677,1.81,5.397
			c0.785,1.659,1.873,3.156,2.962,4.627c0.217,0.295,0.43,0.593,0.683,0.861c0.223,0.235,0.43,0.482,0.64,0.728
			c0.331,0.392,0.652,0.792,1.015,1.154c0.246,0.245,0.501,0.479,0.749,0.723c0.25,0.244,0.467,0.484,0.81,0.611
			c0.432,0.161,0.997,0.04,1.295-0.322c0.234-0.283,0.342-0.599,0.331-0.965c-0.014-0.474-0.135-0.96-0.225-1.423
			c-0.051-0.264-0.104-0.531-0.148-0.799c-0.041-0.248-0.105-0.489-0.142-0.737c-0.001-0.012-0.003-0.022-0.003-0.032
			c0.254,0.169,0.496,0.357,0.744,0.533c0.306,0.216,0.607,0.435,0.902,0.668c0.542,0.425,1.09,0.846,1.65,1.249
			c1.227,0.889,2.537,1.656,3.816,2.467c1.897,1.201,3.804,2.378,5.743,3.508c1.682,0.981,3.368,1.959,5.087,2.877
			c0.83,0.442,1.676,0.852,2.506,1.294c0.929,0.496,1.868,0.97,2.817,1.427c1.915,0.924,3.831,1.839,5.764,2.726
			c2.029,0.929,4.075,1.832,6.155,2.644c1.963,0.764,3.985,1.418,6.029,1.931c1.1,0.276,2.225,0.474,3.34,0.68
			c1.026,0.191,2.053,0.366,3.084,0.526c2.111,0.323,4.196,0.795,6.295,1.185c2.078,0.385,4.149,0.837,6.245,1.122
			c0.209,0.028,0.419,0.056,0.628,0.082c-0.047,0.095-0.093,0.191-0.139,0.286c-0.479,0.991-0.921,2.005-1.346,3.021
			c-0.436,1.045-0.891,2.078-1.263,3.149c-0.201,0.578-0.381,1.164-0.504,1.766c-0.101,0.497-0.169,1-0.235,1.503
			c-0.128,0.928-0.29,1.85-0.386,2.783c-0.096,0.926-0.145,1.855-0.141,2.785c-0.271,0.062-0.538,0.141-0.803,0.219
			c-0.47,0.136-0.937,0.275-1.387,0.466c-0.433,0.182-0.861,0.378-1.291,0.565c-0.99,0.431-1.95,0.906-2.859,1.491
			c-0.861,0.554-1.711,1.145-2.51,1.786c-0.46,0.368-0.909,0.757-1.324,1.176c-0.403,0.405-0.773,0.842-1.146,1.274
			c-0.224,0.259-0.449,0.518-0.674,0.778c-0.624,0.717-1.266,1.419-1.895,2.132c-0.468,0.533-0.905,1.064-1.289,1.66
			c-0.33,0.511-0.608,1.052-0.854,1.607c-0.464,1.043-0.786,2.173-0.853,3.316c-0.035,0.613-0.004,1.213,0.058,1.824
			c0.047,0.469,0.157,0.933,0.26,1.391c0.113,0.494,0.255,0.98,0.425,1.457c0.185,0.523,0.476,1.017,0.782,1.479
			c0.626,0.945,1.385,1.787,2.164,2.607c0.662,0.697,1.375,1.331,2.1,1.961c0.846,0.737,1.717,1.423,2.652,2.041
			c0.878,0.571,1.777,1.105,2.693,1.613c0.911,0.505,1.824,1,2.77,1.437c1.696,0.782,3.543,1.177,5.374,1.509
			c0.059,0.011,0.118,0.022,0.177,0.032c0.074,0.013,0.148,0.027,0.222,0.04c0.028,0.005,0.057,0.01,0.085,0.015
			c-0.036-0.007-0.073-0.013-0.109-0.02c0.878,0.158,1.758,0.286,2.643,0.399c1.062,0.135,2.131,0.259,3.198,0.346
			c1.052,0.087,2.103,0.052,3.157,0.08c0.178,0.004,0.355,0.007,0.532,0.007c0.68,0,1.357-0.031,2.037-0.07
			c1.103-0.065,2.206-0.132,3.288-0.36c1.068-0.225,2.129-0.491,3.188-0.757c0.924-0.232,1.853-0.435,2.781-0.649
			c0.815-0.187,1.629-0.396,2.426-0.648c0.455-0.143,0.922-0.252,1.379-0.389c0.072,0.489,0.151,0.982,0.264,1.463
			c0.132,0.558,0.311,1.112,0.527,1.644c0.457,1.129,1.046,2.222,1.848,3.143c1.611,1.849,3.901,2.938,6.172,3.738
			c1.052,0.371,2.133,0.643,3.217,0.904c1.103,0.265,2.215,0.515,3.342,0.649c1.081,0.127,2.175,0.281,3.264,0.306
			c0.122,0.003,0.243,0.004,0.364,0.004c0.958,0,1.912-0.081,2.863-0.191c1.048-0.121,2.087-0.312,3.118-0.533
			c0.929-0.198,1.856-0.394,2.779-0.621c0.896-0.22,1.801-0.399,2.693-0.631c0.899-0.234,1.803-0.451,2.699-0.696
			c1.849-0.504,3.732-0.912,5.621-1.236c0.003-0.001,0.006-0.001,0.009-0.002c0.017-0.003,0.033-0.006,0.048-0.008
			c-0.009,0.002-0.019,0.003-0.029,0.004c1.001-0.167,1.993-0.342,2.98-0.579c0.477-0.114,0.958-0.212,1.437-0.319
			c0.48-0.108,0.957-0.227,1.437-0.334c0.842-0.188,1.699-0.296,2.536-0.512c0.871-0.223,1.75-0.426,2.606-0.701
			c0.514-0.166,1.023-0.351,1.528-0.541c0.534-0.201,1.068-0.404,1.582-0.653c0.436-0.212,0.859-0.447,1.293-0.663
			c0.42-0.21,0.847-0.408,1.269-0.616c0.38-0.188,0.745-0.399,1.111-0.613c0.332-0.194,0.674-0.368,1.016-0.544
			c0.645-0.332,1.246-0.718,1.839-1.137c0.836-0.59,1.647-1.221,2.44-1.87c0.23-0.188,0.445-0.393,0.671-0.586
			c0.049-0.04,0.1-0.079,0.149-0.12c0.261-0.215,0.502-0.448,0.734-0.692c0.04-0.044,0.08-0.087,0.119-0.132
			c0.45,0.77,1.087,1.454,1.715,2.066c0.681,0.695,1.385,1.367,2.251,1.826c0.454,0.24,0.955,0.416,1.442,0.583
			c0.529,0.181,1.08,0.298,1.623,0.431c0.907,0.224,1.824,0.405,2.734,0.611c0.193,0.044,0.387,0.085,0.58,0.124
			c0.876,0.253,1.755,0.507,2.647,0.7c0.949,0.196,1.913,0.305,2.873,0.441c1.043,0.149,2.097,0.18,3.149,0.225
			c0.623,0.027,1.247,0.039,1.871,0.039c1.689,0,3.378-0.094,5.06-0.256c1.899-0.183,3.793-0.415,5.69-0.618
			c1.008-0.107,2.019-0.194,3.024-0.327c0.465-0.062,0.929-0.129,1.396-0.179c0.471-0.051,0.944-0.088,1.414-0.139
			c0.983-0.106,1.961-0.252,2.94-0.388c1.029-0.142,2.049-0.347,3.071-0.531c1.661-0.289,3.329-0.537,5-0.755
			c0.433-0.057,0.864-0.132,1.297-0.186c0.4-0.05,0.801-0.076,1.202-0.115c0.799-0.076,1.581-0.252,2.368-0.394
			c0.238-0.041,0.475-0.081,0.712-0.123c0.351-0.062,0.699-0.129,1.044-0.219c0.315-0.082,0.63-0.167,0.945-0.248
			c0.856-0.222,1.72-0.404,2.57-0.649c0.938-0.27,1.891-0.481,2.798-0.849c0.423-0.171,0.854-0.329,1.27-0.517
			c0.421-0.191,0.829-0.408,1.245-0.608c0.481-0.214,0.975-0.396,1.454-0.613c0.004-0.002,0.008-0.004,0.013-0.006l0.001-0.001
			c0.001-0.001,0.002-0.001,0.003-0.002c0.049-0.023,0.098-0.045,0.146-0.068c0.167-0.075,0.335-0.147,0.504-0.217
			c0.872-0.496,1.727-1.022,2.556-1.588c0.461-0.325,0.913-0.666,1.346-1.029c0.06-0.05,0.12-0.1,0.18-0.151
			c0.128-0.11,0.254-0.222,0.38-0.335c0.188-0.169,0.375-0.342,0.558-0.518c0.061-0.057,0.122-0.116,0.183-0.176
			c0.06-0.059,0.121-0.117,0.182-0.176c0.065-0.064,0.13-0.128,0.194-0.192c0.005-0.005,0.009-0.009,0.014-0.014
			c0.11-0.112,0.219-0.226,0.327-0.341c0.054-0.057,0.108-0.114,0.162-0.171c0.053-0.058,0.108-0.115,0.163-0.171
			c0.056-0.059,0.113-0.116,0.171-0.173c0.172-0.172,0.348-0.34,0.518-0.514c0.16-0.168,0.315-0.34,0.472-0.513
			c0.078-0.086,0.156-0.172,0.234-0.258c0.062-0.068,0.125-0.136,0.188-0.203c0.017-0.018,0.033-0.034,0.049-0.052
			c0.024-0.025,0.049-0.051,0.074-0.076c0.024-0.026,0.049-0.051,0.074-0.076c0.025-0.026,0.05-0.051,0.075-0.075
			c0.327-0.324,0.677-0.626,1.063-0.878c0.49-0.32,0.995-0.616,1.489-0.929c0.44-0.279,0.882-0.553,1.316-0.841
			c0.057-0.038,0.114-0.075,0.17-0.114c0.099-0.068,0.198-0.137,0.296-0.207c0.09-0.063,0.179-0.126,0.269-0.191
			c0.012-0.008,0.025-0.017,0.038-0.027c0.089-0.064,0.178-0.13,0.267-0.194c0.101-0.074,0.203-0.148,0.303-0.223
			c0.066-0.049,0.133-0.099,0.199-0.148c0.5-0.374,0.988-0.768,1.451-1.188c0.478-0.432,0.928-0.892,1.392-1.339
			c0.439-0.422,0.867-0.853,1.298-1.284c0.458-0.457,0.915-0.913,1.358-1.383c0.367-0.39,0.728-0.786,1.09-1.181
			c0.446-0.486,0.889-0.974,1.328-1.467c0.06-0.097,0.119-0.195,0.177-0.293c0.268-0.458,0.523-0.924,0.78-1.387
			c0.244-0.421,0.494-0.838,0.724-1.267c0.285-0.527,0.519-1.076,0.74-1.632c0.394-0.995,0.654-2.037,0.859-3.087
			c0.183-0.936,0.313-1.881,0.436-2.827c0.144-1.104,0.289-2.211,0.348-3.324c0.056-1.039,0.046-2.079,0.008-3.119
			c-0.041-1.16-0.161-2.313-0.315-3.464c-0.278-2.091-0.637-4.18-1.215-6.212c-0.151-0.528-0.308-1.056-0.489-1.574
			c-0.162-0.463-0.34-0.921-0.507-1.382c-0.325-0.897-0.665-1.789-1.053-2.661c-0.748-1.678-1.642-3.286-2.673-4.806
			c0.038,0.002,0.078,0.003,0.116,0.003c0.109,0,0.216-0.006,0.323-0.018c0.263-0.031,0.579-0.105,0.825-0.202
			c0.273-0.107,0.511-0.264,0.751-0.429c0.23-0.158,0.446-0.375,0.658-0.561c0.148-0.129,0.293-0.259,0.437-0.392
			c0.298-0.275,0.599-0.548,0.894-0.827c0.631-0.594,1.255-1.198,1.851-1.828c0.472-0.498,0.927-1.011,1.391-1.517
			c0.029-0.031,0.058-0.063,0.086-0.094c0.017-0.018,0.035-0.038,0.052-0.056c0.03-0.033,0.06-0.065,0.09-0.097
			c0.028-0.031,0.056-0.061,0.085-0.092c0.023-0.024,0.045-0.048,0.068-0.073c0.018-0.02,0.036-0.04,0.054-0.059
			c0.718-0.785,1.404-1.589,2.051-2.439c0.732-0.961,1.457-1.924,2.123-2.933c1.301-1.974,2.457-4.047,3.485-6.177
			c2.242-4.643,3.547-9.7,4.188-14.804c0.169-1.35,0.229-2.706,0.28-4.064c0.043-1.169,0.105-2.341,0.111-3.511
			c0.006-1.168-0.018-2.334-0.047-3.502c-0.031-1.265-0.064-2.537-0.152-3.8c-0.039-0.57-0.107-1.138-0.172-1.705
			c-0.066-0.585-0.126-1.171-0.204-1.754c-0.173-1.303-0.422-2.594-0.569-3.901c-0.14-1.241-0.234-2.484-0.399-3.722
			c-0.155-1.154-0.281-2.308-0.35-3.469c-0.072-1.687-0.047-3.373,0.076-5.056c0.134-1.452,0.349-2.894,0.651-4.32
			c0.313-1.366,0.697-2.713,1.166-4.035c0.345-0.927,0.711-1.842,1.124-2.741c0.445-0.967,0.944-1.913,1.431-2.86
			c0.283-0.527,0.59-1.041,0.881-1.562c0.23-0.413,0.461-0.83,0.725-1.223c0.14-0.179,0.29-0.349,0.431-0.527
			c0.13-0.162,0.253-0.33,0.388-0.486c0.2-0.233,0.397-0.469,0.602-0.696c0.291-0.3,0.651-0.58,0.782-0.985
			c0.144-0.443-0.116-1.001-0.584-1.115c-0.219-0.054-0.4-0.018-0.609,0.022c-0.025,0.005-0.049,0.009-0.074,0.014
			c-0.915,0.169-1.824,0.383-2.729,0.603c0.034-0.023,0.067-0.047,0.101-0.069c0.357-0.211,0.742-0.368,1.077-0.614
			c0.211-0.156,0.426-0.304,0.645-0.446c0.851-0.527,1.708-1.034,2.61-1.47c1.643-0.765,3.304-1.504,5.025-2.075
			c1.623-0.51,3.27-0.941,4.942-1.261c1.085-0.198,2.169-0.404,3.26-0.565c1.133-0.168,2.273-0.231,3.413-0.332
			c2.381-0.211,4.743-0.591,7.122-0.815c1.17-0.11,2.339-0.204,3.504-0.353c1.166-0.151,2.308-0.412,3.436-0.739
			c1.162-0.337,2.328-0.711,3.444-1.183c1.226-0.519,2.416-1.099,3.493-1.889c1.092-0.801,2.075-1.798,2.956-2.823
			c0.394-0.458,0.764-0.936,1.115-1.427c0.393-0.549,0.744-1.134,0.987-1.767c0.443-1.152,0.646-2.349,0.762-3.573
			C418.622,221.911,418.679,220.629,418.516,219.354z M313.53,178.293c0.025-0.008,0.05-0.016,0.075-0.023
			c0.161,0.455,0.298,0.918,0.422,1.385c0.295,1.263,0.471,2.549,0.627,3.836c0.056,0.526,0.106,1.053,0.149,1.582
			c0.363,4.37,0.49,8.753,0.424,13.136c-0.043,1.971-0.128,3.939-0.299,5.903c-0.175,2.011-0.425,4.012-0.726,6.007
			c-0.464,2.923-1.06,5.82-1.574,8.734c-0.178,1.013-0.354,2.027-0.556,3.035c-0.216,1.073-0.467,2.139-0.681,3.212
			c-0.226,1.135-0.472,2.264-0.775,3.382c-0.27,0.995-0.564,1.983-0.856,2.972c-1.046,3.505-2.262,6.955-3.421,10.423
			c-0.656,1.966-1.297,3.939-2.016,5.884c-0.331,0.898-0.66,1.795-1.025,2.681c-0.35,0.854-0.704,1.705-1.009,2.576
			c-0.329,0.941-0.623,1.898-0.878,2.863c-0.43-2.931-0.888-5.861-1.484-8.762c-0.385-1.87-0.882-3.711-1.413-5.544
			c-0.468-1.616-1.026-3.204-1.683-4.754c-0.657-1.553-1.352-3.087-2.168-4.565c-0.872-1.579-1.881-3.064-2.984-4.489
			c-0.55-0.71-1.11-1.414-1.691-2.1c-0.71-0.836-1.482-1.615-2.281-2.367c-1.387-1.308-2.771-2.621-4.18-3.905
			c0.265-0.466,0.495-0.957,0.733-1.428c0.434-0.856,0.896-1.695,1.338-2.547c0.489-0.941,0.958-1.892,1.468-2.822
			c0.466-0.852,0.922-1.711,1.407-2.552c0.195-0.332,0.393-0.661,0.592-0.99c0.033-0.049,0.063-0.1,0.092-0.152
			c0.03-0.05,0.06-0.1,0.091-0.151c0.573-0.941,1.169-1.868,1.749-2.805c0.571-0.922,1.14-1.844,1.729-2.755
			c0.613-0.949,1.224-1.901,1.878-2.821c0.618-0.871,1.253-1.73,1.906-2.574c2.549-3.204,5.319-6.233,8.126-9.212
			c1.482-1.572,2.943-3.161,4.383-4.771c0.751-0.841,1.483-1.695,2.204-2.561c0.334-0.402,0.667-0.804,0.993-1.214
			c0.191-0.241,0.384-0.482,0.564-0.732c0.132-0.183,0.252-0.377,0.389-0.557C313.293,178.602,313.42,178.452,313.53,178.293z
			 M272.377,207.85c1.303-1.327,2.615-2.65,3.955-3.939c1.157-1.097,2.336-2.172,3.489-3.275c0.019-0.018,0.039-0.037,0.059-0.055
			c0.053-0.05,0.104-0.1,0.157-0.151c0.001-0.001,0.002-0.002,0.003-0.002c0.526-0.505,1.049-1.012,1.575-1.516
			c1.472-1.4,2.978-2.765,4.53-4.078c1.547-1.31,3.078-2.633,4.7-3.847c0.039-0.028,0.077-0.057,0.116-0.085
			c0.42-0.307,0.84-0.613,1.262-0.916c1.772-1.274,3.595-2.473,5.433-3.648c1.767-1.131,3.548-2.246,5.377-3.275
			c2.622-1.446,5.304-2.774,8.084-3.892c0.63-0.249,1.263-0.496,1.906-0.713c-0.048,0.059-0.099,0.118-0.151,0.175
			c-0.609,0.559-1.195,1.141-1.805,1.7c-0.826,0.755-1.678,1.481-2.505,2.235c-0.774,0.706-1.554,1.404-2.329,2.108
			c-1.651,1.503-3.288,3.021-4.891,4.575c-1.579,1.531-3.097,3.123-4.604,4.725c-1.545,1.642-3.083,3.29-4.615,4.943
			c-1.494,1.612-2.989,3.225-4.409,4.903c-0.743,0.879-1.449,1.791-2.157,2.698c-0.007,0.009-0.014,0.018-0.021,0.028
			c-0.01,0.013-0.02,0.025-0.03,0.038c-0.033,0.043-0.066,0.085-0.099,0.128c-0.009,0.01-0.017,0.021-0.025,0.032
			c-0.004,0.004-0.008,0.009-0.011,0.013c-0.014,0.018-0.028,0.037-0.043,0.055c-0.006,0.008-0.012,0.015-0.018,0.023
			c-0.137,0.175-0.274,0.35-0.41,0.526c-0.697,0.888-1.407,1.764-2.081,2.671c-0.628,0.847-1.263,1.696-1.837,2.581
			c-0.598,0.923-1.138,1.885-1.675,2.844c-0.017,0.032-0.036,0.065-0.053,0.096c-0.006-0.004-0.011-0.009-0.017-0.013
			c-0.7-0.585-1.403-1.164-2.125-1.721c-0.636-0.491-1.282-0.969-1.918-1.459c-0.439-0.342-0.874-0.691-1.295-1.055
			c-0.515-0.444-1.028-0.885-1.567-1.299c-0.39-0.301-0.781-0.602-1.18-0.891C271.562,208.695,271.966,208.268,272.377,207.85z
			 M193.237,389.422c-0.833,0.133-1.672,0.246-2.512,0.32c-0.673,0.048-1.347,0.043-2.02,0.08c-0.686,0.039-1.369,0.087-2.056,0.1
			c-0.528,0.009-1.055-0.001-1.583-0.015c-0.54-0.015-1.08-0.011-1.619-0.031c-0.502-0.031-1.004-0.076-1.506-0.115
			c-0.595-0.046-1.192-0.069-1.789-0.108c-1.148-0.075-2.293-0.235-3.426-0.43c-0.598-0.114-1.186-0.258-1.768-0.436
			c-0.503-0.166-1.003-0.342-1.496-0.534c-0.567-0.221-1.122-0.471-1.691-0.686c-1.157-0.436-2.325-0.829-3.448-1.35
			c-0.863-0.421-1.696-0.886-2.503-1.41c-0.577-0.386-1.146-0.785-1.712-1.186c-0.467-0.332-0.928-0.669-1.368-1.036
			c-0.517-0.466-1.014-0.959-1.486-1.468c-0.177-0.208-0.345-0.421-0.504-0.644c-0.113-0.183-0.219-0.369-0.321-0.56
			c-0.114-0.24-0.219-0.483-0.312-0.732c-0.045-0.141-0.084-0.283-0.119-0.427c-0.029-0.167-0.051-0.334-0.069-0.503
			c-0.009-0.168-0.013-0.335-0.01-0.502c0.019-0.234,0.051-0.467,0.088-0.698c0.053-0.263,0.117-0.522,0.191-0.78
			c0.143-0.404,0.306-0.8,0.47-1.195c0.173-0.421,0.347-0.839,0.536-1.252c0.221-0.441,0.463-0.867,0.725-1.284
			c0.266-0.388,0.549-0.763,0.852-1.124c0.601-0.668,1.248-1.299,1.916-1.899c0.682-0.614,1.365-1.221,2.005-1.88
			c0.597-0.614,1.2-1.222,1.793-1.839c0.692-0.72,1.354-1.464,2.006-2.22c0.093-0.107,0.186-0.214,0.278-0.322
			c0.482-0.548,0.99-1.072,1.474-1.618c0.095,0.851,0.198,1.701,0.316,2.548c0.119,0.858,0.296,1.7,0.478,2.547
			c0.364,1.693,0.749,3.382,1.151,5.065c0.211,0.883,0.431,1.761,0.736,2.617c0.316,0.888,0.691,1.757,1.158,2.575
			c0.264,0.464,0.534,0.924,0.831,1.368c0.29,0.435,0.614,0.844,0.938,1.255c0.615,0.782,1.253,1.526,1.995,2.194
			c0.859,0.771,1.777,1.482,2.714,2.154c0.821,0.589,1.688,1.112,2.566,1.61c0.7,0.392,1.417,0.753,2.129,1.121
			c0.679,0.35,1.367,0.68,2.064,0.99c0.896,0.398,1.799,0.77,2.752,1.006c0.833,0.207,1.674,0.343,2.527,0.439
			c0.033,0.004,0.066,0.008,0.1,0.012C194.22,389.241,193.731,389.343,193.237,389.422z M349.032,340.59
			c0.266,1.01,0.48,2.035,0.684,3.059c0.178,0.882,0.348,1.762,0.481,2.651c0.112,0.848,0.178,1.699,0.199,2.554
			c0.002,0.922-0.044,1.844-0.102,2.765c-0.045,0.747-0.103,1.494-0.183,2.238c-0.116,0.892-0.289,1.776-0.5,2.651
			c-0.182,0.682-0.404,1.351-0.637,2.018c-0.21,0.6-0.418,1.202-0.648,1.794c-0.205,0.493-0.423,0.981-0.63,1.473
			c-0.234,0.559-0.451,1.121-0.674,1.683c-0.466,1.124-1.032,2.206-1.618,3.273c-0.496,0.857-1.027,1.706-1.612,2.504
			c-0.342,0.43-0.708,0.842-1.064,1.26c-0.357,0.419-0.705,0.841-1.085,1.239c-0.414,0.433-0.825,0.868-1.238,1.302
			c-0.053,0.106-0.128,0.204-0.222,0.286c-0.11,0.096-0.22,0.193-0.331,0.289c-0.123,0.126-0.246,0.253-0.37,0.378
			c-0.788,0.772-1.626,1.502-2.496,2.181c-0.19,0.142-0.383,0.279-0.577,0.413c-0.229,0.183-0.462,0.36-0.705,0.527
			c-0.048,0.033-0.095,0.065-0.142,0.098c-0.28,0.246-0.562,0.491-0.851,0.725c-0.954,0.776-1.937,1.51-2.929,2.237
			c-1.022,0.749-2.067,1.475-3.158,2.119c-1.135,0.67-2.31,1.29-3.522,1.809c-0.295,0.126-0.592,0.248-0.89,0.365
			c-0.01,0.004-0.02,0.008-0.03,0.012c-0.086,0.034-0.172,0.067-0.259,0.1c-0.044,0.018-0.09,0.035-0.135,0.052
			c-0.842,0.318-1.698,0.603-2.564,0.857c-0.223,0.066-0.448,0.128-0.673,0.187c-0.031,0.011-0.062,0.021-0.093,0.03
			c-0.445,0.137-0.887,0.276-1.329,0.415c-0.699,0.212-1.408,0.368-2.124,0.507c-0.643,0.123-1.273,0.296-1.916,0.418
			c-0.474,0.079-0.949,0.15-1.418,0.253c-0.434,0.095-0.863,0.21-1.298,0.297c-0.439,0.069-0.878,0.122-1.317,0.19
			c-0.445,0.069-0.892,0.135-1.34,0.186c-1.153,0.27-2.313,0.507-3.471,0.747c-1.556,0.322-3.119,0.59-4.69,0.821
			c-1.528,0.225-3.074,0.323-4.614,0.399c-0.121,0.006-0.242,0.012-0.363,0.017c-0.012,0.001-0.023,0.001-0.034,0.002
			c-0.1,0.004-0.198,0.009-0.297,0.013c-0.09,0.004-0.181,0.007-0.272,0.01c-0.101,0.004-0.204,0.008-0.305,0.011
			c-0.309,0.01-0.619,0.019-0.928,0.026c-0.587,0.013-1.172,0.044-1.758,0.076c-0.084,0.005-0.167,0.009-0.251,0.014h-0.001
			c-0.03,0.002-0.061,0.003-0.091,0.005c-0.754,0.041-1.509,0.054-2.263,0.09c-0.667,0.032-1.333,0.067-2.001,0.087
			c-0.809,0.023-1.615,0.059-2.422,0.111c-0.793,0.052-1.587,0.102-2.381,0.125c-0.119,0.003-0.238,0.006-0.358,0.007
			c-0.31,0.053-0.62,0.101-0.931,0.147c-1.442,0.188-2.894,0.194-4.346,0.214c-1.252,0.01-2.505-0.024-3.751-0.163
			c-0.698-0.085-1.397-0.185-2.081-0.348c-0.538-0.144-1.069-0.32-1.588-0.52c-0.484-0.202-0.966-0.429-1.424-0.683
			c-0.459-0.263-0.917-0.528-1.377-0.789c-0.069-0.041-0.137-0.085-0.204-0.131c-0.165-0.13-0.326-0.267-0.479-0.41
			c-0.036-0.039-0.07-0.08-0.104-0.121c-0.127-0.174-0.244-0.354-0.356-0.538c-0.022-0.041-0.043-0.083-0.062-0.125
			c-0.086-0.234-0.159-0.471-0.227-0.708c-0.012-0.047-0.022-0.094-0.032-0.141c0-0.004,0-0.008-0.001-0.013
			c0.003-0.104,0.011-0.208,0.019-0.312c0.003-0.022,0.008-0.044,0.012-0.066c0.001-0.003,0.002-0.006,0.003-0.009
			c0.018-0.027,0.035-0.054,0.054-0.081c0.078-0.094,0.16-0.185,0.245-0.274c0.165-0.157,0.336-0.306,0.513-0.447
			c0.35-0.259,0.71-0.497,1.085-0.718c0.706-0.396,1.427-0.765,2.163-1.098c0.796-0.358,1.6-0.696,2.404-1.032
			c1.532-0.625,3.097-1.142,4.691-1.587c1.767-0.473,3.553-0.863,5.348-1.219c0.945-0.188,1.884-0.406,2.828-0.594
			c0.986-0.197,1.981-0.346,2.976-0.491c1.839-0.246,3.686-0.424,5.524-0.675c1.944-0.266,3.888-0.556,5.816-0.922
			c1.995-0.378,3.991-0.785,5.967-1.251c1.031-0.244,2.06-0.496,3.096-0.722c0.487-0.106,0.974-0.211,1.456-0.336
			c0.322-0.085,0.637-0.191,0.957-0.28c0.008-0.002,0.016-0.004,0.023-0.006c0.135,0.007,0.259-0.105,0.247-0.25
			c-0.01-0.144-0.158-0.247-0.294-0.208c-0.434-0.007-0.86-0.031-1.295,0.009c-0.644,0.057-1.285,0.147-1.926,0.231
			c-1.359,0.177-2.722,0.314-4.084,0.465c-1.953,0.215-3.906,0.425-5.863,0.594c-2.048,0.177-4.098,0.347-6.156,0.379
			c-0.639,0.005-1.278,0.01-1.918,0.012c-0.877,0.003-1.755-0.028-2.631-0.072c-0.212-0.031-0.423-0.064-0.635-0.1
			c-0.532-0.089-1.065-0.17-1.592-0.287c-0.745-0.174-1.487-0.377-2.209-0.631c-0.586-0.217-1.165-0.464-1.723-0.744
			c-1.069-0.559-2.098-1.195-3.093-1.877c-0.503-0.35-0.986-0.721-1.445-1.126c-0.448-0.406-0.875-0.827-1.274-1.281
			c-0.272-0.326-0.522-0.667-0.756-1.021c-0.168-0.271-0.319-0.55-0.469-0.83c-0.156-0.289-0.316-0.575-0.458-0.87
			c-0.041-0.087-0.081-0.174-0.121-0.261c-0.012-0.234-0.017-0.47-0.02-0.704c-0.006-2.034-0.049-4.073,0.166-6.098
			c0.135-1.048,0.328-2.085,0.575-3.111c0.382-1.421,0.86-2.808,1.393-4.179c0.705-1.734,1.473-3.436,2.371-5.081
			c0.751-1.299,1.565-2.565,2.457-3.771c0.929-1.19,1.923-2.323,2.976-3.405c0.829-0.812,1.699-1.571,2.61-2.292
			c1.139-0.854,2.319-1.636,3.547-2.354c0.919-0.513,1.848-0.986,2.816-1.4c1.974-0.811,3.988-1.539,6.042-2.121
			c2.747-0.732,5.551-1.244,8.363-1.656c1.955-0.268,3.917-0.512,5.886-0.643c0.948-0.063,1.899-0.107,2.848-0.154
			c0.466-0.023,0.933-0.039,1.397-0.086c0.325-0.032,0.656-0.054,0.975-0.127c0.003,0,0.007,0,0.01-0.001
			c0.038,0.003,0.075,0.007,0.112,0.011c0.192,0.021,0.208-0.279,0.016-0.299c-0.035-0.004-0.071-0.008-0.106-0.011
			c-0.007-0.003-0.015-0.004-0.023-0.007c0.004,0.002,0.008,0.003,0.013,0.006c-0.305-0.122-0.639-0.182-0.96-0.245
			c-0.42-0.084-0.844-0.144-1.271-0.189c-1.042-0.109-2.089-0.168-3.135-0.229c-1.077-0.063-2.155-0.116-3.233-0.138
			c-1.107-0.022-2.213-0.016-3.319,0.019c-1.088,0.034-2.178,0.072-3.263,0.168c-1.124,0.099-2.243,0.238-3.359,0.405
			c-1.069,0.158-2.132,0.342-3.183,0.594c-1.145,0.275-2.288,0.579-3.409,0.944c-1.061,0.343-2.122,0.707-3.142,1.16
			c-2.048,0.911-4.025,1.985-5.844,3.3c-0.952,0.688-1.892,1.396-2.784,2.162c-0.914,0.785-1.793,1.604-2.645,2.455
			c-1.226,1.237-2.383,2.53-3.425,3.928c-1.058,1.419-1.999,2.903-2.879,4.438c-1.541,2.721-2.841,5.583-3.629,8.616
			c-0.542,2.184-0.891,4.432-0.784,6.686c0.098,2.046,0.824,3.975,1.598,5.846c0.44,1.063,0.927,2.102,1.511,3.095
			c0.421,0.715,0.876,1.422,1.364,2.093c0.426,0.588,0.865,1.175,1.367,1.7c0.27,0.282,0.552,0.588,0.863,0.853
			c-1.138,0.327-2.266,0.69-3.384,1.077c-1.012,0.35-2.014,0.728-2.985,1.181c-0.104-0.178-0.216-0.349-0.334-0.522
			c-0.095-0.151-0.18-0.309-0.272-0.462c-0.222-0.372-0.491-0.74-0.797-1.049c-0.651-0.661-1.449-1.129-2.29-1.507
			c-0.758-0.341-1.574-0.571-2.364-0.822c-0.353-0.112-0.708-0.199-1.067-0.274c0.318-0.24,0.635-0.482,0.939-0.739
			c0.254-0.214,0.471-0.465,0.711-0.692c0.241-0.229,0.493-0.448,0.721-0.692c0.254-0.271,0.495-0.554,0.742-0.834
			c0.237-0.27,0.484-0.534,0.71-0.815c0.232-0.29,0.472-0.592,0.646-0.922c0.051-0.095,0.104-0.194,0.127-0.301
			c0.028-0.126,0.011-0.218-0.045-0.332c-0.061-0.127-0.255-0.156-0.352-0.054c-0.001,0.001-0.002,0.003-0.003,0.003
			c-0.089,0.05-0.16,0.138-0.229,0.209c-0.125,0.131-0.257,0.255-0.395,0.372c-0.475,0.382-0.965,0.744-1.474,1.078
			c-0.256,0.16-0.521,0.305-0.781,0.459c-0.263,0.156-0.522,0.316-0.796,0.455c-0.237,0.109-0.477,0.21-0.711,0.325
			c-0.225,0.111-0.447,0.23-0.673,0.339c-0.399,0.182-0.797,0.355-1.212,0.495c-0.213,0.065-0.426,0.129-0.637,0.195
			c-0.637,0.21-1.258,0.469-1.876,0.729c-0.32-0.027-0.641-0.047-0.963-0.064c-0.676-0.034-1.346-0.06-2.021-0.014
			c-0.491,0.033-0.981,0.069-1.472,0.108c-0.87,0.072-1.741,0.152-2.605,0.272c-0.514,0.07-1.023,0.167-1.526,0.295
			c-0.407,0.103-0.806,0.233-1.207,0.352c-0.948,0.281-1.909,0.522-2.837,0.864c-0.46,0.17-0.908,0.366-1.36,0.554
			c-0.4,0.167-0.802,0.32-1.21,0.465c-1.06,0.36-2.128,0.693-3.186,1.061c-1.129,0.393-2.237,0.838-3.352,1.269
			c-1.928,0.745-3.821,1.58-5.732,2.37c-0.461,0.191-0.924,0.383-1.375,0.597c-0.417,0.198-0.815,0.429-1.218,0.654
			c-0.281,0.155-0.562,0.308-0.834,0.478c-0.145,0.091-0.301,0.183-0.409,0.318c-0.115,0.064-0.185,0.219-0.082,0.352
			c0.049,0.063,0.114,0.091,0.178,0.091c0.047,0,0.094-0.014,0.133-0.039c0.169-0.026,0.326-0.099,0.487-0.159
			c0.054-0.018,0.108-0.038,0.162-0.057c-0.013,0.005-0.027,0.01-0.041,0.015c0.538-0.185,1.077-0.35,1.624-0.507
			c0.685-0.196,1.359-0.427,2.04-0.633c1.398-0.421,2.831-0.719,4.258-1.028c1.616-0.341,3.241-0.629,4.858-0.954
			c1.564-0.315,3.122-0.666,4.712-0.812c0.682-0.051,1.363-0.101,2.04-0.202c0.614-0.09,1.223-0.191,1.84-0.251
			c0.779-0.061,1.558-0.089,2.333-0.189c0.658-0.085,1.315-0.172,1.976-0.233c0.592-0.044,1.183-0.078,1.777-0.078
			c0.182,0,0.364-0.001,0.547-0.002c0.529-0.002,1.058-0.004,1.586,0.016c0.83,0.047,1.659,0.121,2.479,0.256
			c0.243,0.049,0.483,0.105,0.722,0.177c0.709,0.234,1.418,0.496,2.099,0.802c0.656,0.332,1.273,0.733,1.922,1.079
			c0.378,0.202,0.762,0.414,1.163,0.564c0.159,0.06,0.319,0.118,0.477,0.182c-0.122,0.119-0.241,0.24-0.357,0.363
			c-0.389,0.414-0.704,0.898-0.973,1.397c-0.415,0.77-0.681,1.62-0.76,2.492c-0.007,0.072-0.011,0.144-0.013,0.215
			c-0.099,0.056-0.198,0.111-0.296,0.171c-0.1,0.062-0.189,0.136-0.286,0.202c-0.266,0.161-0.531,0.327-0.788,0.502
			c-0.279,0.189-0.539,0.404-0.821,0.587c-0.335,0.215-0.651,0.457-0.983,0.677c-0.362,0.24-0.726,0.48-1.095,0.71
			c-0.422,0.257-0.849,0.506-1.277,0.754c-0.546,0.318-1.065,0.679-1.599,1.016c-0.417,0.25-0.852,0.46-1.279,0.692
			c-0.492,0.269-0.975,0.552-1.483,0.791c-0.726,0.313-1.484,0.559-2.222,0.841c-0.796,0.304-1.61,0.55-2.411,0.837
			c-0.663,0.237-1.318,0.482-1.991,0.691c-0.627,0.195-1.241,0.43-1.868,0.625c-0.644,0.181-1.302,0.308-1.956,0.449
			c-0.694,0.151-1.39,0.276-2.089,0.403c-1.464,0.263-2.898,0.669-4.365,0.917c-0.007,0.002-0.014,0.002-0.022,0.003
			c-0.129,0.021-0.26,0.041-0.389,0.062c-0.933,0.146-1.862,0.309-2.8,0.427c-0.921,0.116-1.838,0.265-2.761,0.376
			c-0.897,0.107-1.785,0.27-2.682,0.372c-0.928,0.106-1.863,0.187-2.796,0.231c-1.111,0.037-2.224,0.027-3.334,0.003
			c-1.1-0.022-2.203-0.115-3.3-0.211c-0.846-0.083-1.685-0.205-2.525-0.336c-0.796-0.122-1.594-0.234-2.382-0.399
			c-0.893-0.209-1.762-0.476-2.626-0.783c-0.796-0.298-1.572-0.63-2.33-1.012c-0.48-0.257-0.948-0.528-1.397-0.833
			c-0.234-0.175-0.455-0.362-0.672-0.556c-0.237-0.232-0.464-0.472-0.68-0.724c-0.078-0.1-0.153-0.202-0.224-0.307
			c-0.26-0.444-0.497-0.904-0.714-1.37c-0.198-0.456-0.389-0.926-0.547-1.399c-0.067-0.247-0.118-0.497-0.163-0.749
			c-0.041-0.254-0.075-0.508-0.094-0.764c-0.002-0.226,0.008-0.451,0.025-0.676c0.033-0.311,0.08-0.618,0.142-0.923
			c0.139-0.575,0.317-1.145,0.513-1.704c0.194-0.512,0.417-1.012,0.662-1.5c0.249-0.453,0.532-0.882,0.809-1.318
			c0.319-0.499,0.635-1.001,0.964-1.493c0.624-0.932,1.271-1.85,1.918-2.766c0.617-0.864,1.258-1.711,1.899-2.556
			c1.306-1.72,2.625-3.43,3.978-5.114c1.384-1.723,2.815-3.4,4.314-5.023c2.189-2.324,4.54-4.477,7.002-6.511
			c0.555-0.451,1.112-0.9,1.666-1.352c0.572-0.469,1.138-0.944,1.706-1.417c0.006-0.005,0.012-0.01,0.018-0.015
			c0.053-0.044,0.106-0.086,0.158-0.13c0.267-0.218,0.534-0.435,0.801-0.652c1.603-1.305,3.255-2.549,4.916-3.781
			c1.765-1.31,3.559-2.578,5.423-3.744c1.26-0.777,2.529-1.542,3.818-2.268c0.63-0.355,1.262-0.706,1.902-1.042
			c0.567-0.297,1.133-0.616,1.717-0.883c0.115-0.041,0.238-0.071,0.35-0.12c0.177-0.076,0.072-0.357-0.105-0.28
			c-0.112,0.048-0.234,0.078-0.349,0.119H247.4c-0.089,0.024-0.179,0.044-0.268,0.067c-2.013,0.53-3.951,1.306-5.863,2.119
			c-2.071,0.881-4.12,1.818-6.167,2.754c-0.005,0.003-0.01,0.004-0.015,0.007c-1.778,0.794-3.57,1.556-5.321,2.406
			c-0.879,0.426-1.762,0.844-2.631,1.29c-0.914,0.47-1.807,0.979-2.682,1.518c-1.989,1.225-3.846,2.625-5.648,4.108
			c-1.692,1.392-3.337,2.846-4.883,4.4c-0.848,0.852-1.67,1.732-2.482,2.619c-0.748,0.817-1.48,1.647-2.175,2.51
			c-1.414,1.758-2.757,3.564-4.022,5.432c-0.607,0.896-1.211,1.796-1.778,2.717c-0.583,0.945-1.104,1.925-1.603,2.917
			c-0.473,0.939-0.903,1.885-1.264,2.874c-0.155,0.428-0.311,0.856-0.463,1.284c-0.176,0.503-0.361,1.007-0.486,1.526
			c-0.156,0.646-0.27,1.295-0.338,1.949c-0.163-0.052-0.33-0.095-0.499-0.121c-0.282-0.042-0.567-0.075-0.85-0.111
			c-0.342-0.044-0.687-0.088-1.029-0.13c-0.459-0.065-0.915-0.155-1.37-0.234c-0.451-0.078-0.895-0.183-1.337-0.299
			c-0.001,0-0.001,0-0.002,0c-0.575-0.154-1.133-0.353-1.697-0.544c-0.568-0.193-1.131-0.394-1.688-0.616
			c-0.642-0.266-1.276-0.557-1.885-0.89c-0.701-0.408-1.367-0.88-2.019-1.364c-0.894-0.686-1.753-1.424-2.564-2.205
			c-0.265-0.264-0.527-0.533-0.774-0.815c-0.281-0.32-0.552-0.648-0.837-0.964c-0.407-0.452-0.82-0.896-1.201-1.37
			c-0.374-0.475-0.756-0.947-1.099-1.444c-0.363-0.525-0.713-1.063-1.04-1.61c-0.455-0.803-0.845-1.651-1.214-2.498
			c-0.183-0.46-0.342-0.927-0.493-1.398c-0.163-0.511-0.331-1.02-0.475-1.536c-0.199-0.764-0.379-1.535-0.517-2.311
			c-0.069-0.382-0.115-0.768-0.168-1.152c-0.049-0.354-0.105-0.704-0.152-1.057c-0.107-0.899-0.173-1.796-0.177-2.701
			c0.008-1.09,0.031-2.181,0.096-3.268c0.064-1.08,0.114-2.169,0.244-3.244c0.06-0.406,0.131-0.811,0.211-1.213
			c0.103-0.523,0.193-1.047,0.284-1.572c0.095-0.553,0.2-1.103,0.311-1.653c0.09-0.45,0.168-0.901,0.28-1.346
			c0.142-0.512,0.295-1.021,0.458-1.526c0.146-0.451,0.322-0.889,0.501-1.327c0.208-0.507,0.426-1.01,0.63-1.519
			c0.005-0.012,0.009-0.023,0.014-0.035c0.9,0.106,1.8,0.216,2.704,0.295c1.064,0.095,2.13,0.181,3.195,0.261
			c1.048,0.08,2.099,0.125,3.148,0.202c0.976,0.072,1.95,0.183,2.928,0.238c1.139,0.065,2.279,0.07,3.419,0.121
			c2.039,0.089,4.077,0.208,6.114,0.323c0.94,0.053,1.881,0.087,2.82,0.167c0.866,0.074,1.725,0.117,2.591,0.117
			c0.141,0,0.283,0,0.424-0.003c0.604-0.01,0.727-0.931,0.151-1.105c-0.578-0.174-1.161-0.326-1.757-0.43
			c-0.528-0.094-1.063-0.154-1.594-0.224c-0.908-0.126-1.813-0.263-2.723-0.377c-0.932-0.114-1.865-0.226-2.795-0.348
			c-1.327-0.177-2.661-0.352-3.976-0.606c-1.342-0.26-2.689-0.484-4.044-0.665c0.063,0.008,0.126,0.017,0.188,0.025
			c-0.968-0.131-1.933-0.283-2.894-0.461c-2.091-0.387-4.18-0.785-6.259-1.226c-1.053-0.221-2.102-0.462-3.148-0.717
			c-1.021-0.248-2.036-0.517-3.059-0.757c-0.993-0.233-1.989-0.449-2.977-0.698c-1.116-0.28-2.23-0.573-3.348-0.842
			c-1.975-0.479-3.959-0.916-5.92-1.45c-0.733-0.203-1.468-0.404-2.193-0.631c-0.814-0.253-1.618-0.541-2.43-0.804
			c-1.901-0.618-3.775-1.316-5.639-2.038c-1.852-0.716-3.685-1.483-5.513-2.256c-0.002-0.001-0.003-0.001-0.004-0.002
			c-0.008-0.004-0.018-0.008-0.026-0.012c-0.028-0.012-0.057-0.023-0.085-0.037c0.002,0.002,0.005,0.003,0.008,0.004
			c-0.024-0.01-0.049-0.021-0.073-0.031c-0.021-0.009-0.044-0.018-0.065-0.028c-0.009-0.004-0.018-0.008-0.029-0.012
			c0,0,0,0,0-0.001c-0.005-0.002-0.01-0.004-0.015-0.006c-0.002-0.001-0.003-0.002-0.005-0.002
			c-0.003-0.001-0.007-0.003-0.009-0.004c-0.002-0.001-0.003-0.002-0.005-0.003c-0.002-0.001-0.003-0.002-0.005-0.003
			c-0.01-0.004-0.019-0.008-0.029-0.012c-0.02-0.009-0.041-0.017-0.062-0.027c-0.013-0.005-0.025-0.01-0.038-0.015
			c-1.577-0.668-3.157-1.333-4.737-1.998c-1.119-0.477-2.233-0.966-3.353-1.442c-1.316-0.559-2.61-1.186-3.893-1.817
			c-1.341-0.663-2.665-1.362-3.994-2.048c-1.905-0.985-3.855-1.865-5.806-2.753c-1.891-0.861-3.727-1.845-5.644-2.649
			c-0.904-0.379-1.81-0.732-2.781-0.889c-0.81-0.132-1.781-0.077-2.339,0.618c-0.153,0.191-0.269,0.39-0.347,0.606
			c-0.084-0.156-0.173-0.311-0.26-0.465c-0.73-1.33-1.457-2.663-2.136-4.017c-0.34-0.68-0.687-1.357-1.028-2.035
			c-0.369-0.737-0.74-1.475-1.148-2.19c-0.51-0.891-1.041-1.782-1.668-2.596c-0.316-0.408-0.731-0.763-1.265-0.817
			c-0.558-0.057-0.988,0.286-1.273,0.73c-0.338,0.529-0.614,1.085-0.9,1.643c-0.162,0.315-0.343,0.619-0.509,0.933
			c-0.121,0.228-0.244,0.456-0.371,0.68c0.018-0.1,0.037-0.201,0.06-0.301c0.023-0.072,0.049-0.141,0.076-0.211
			c0.079-0.186,0.155-0.37,0.198-0.569c0.024-0.111,0.044-0.219,0.064-0.328c0.041-0.238,0.079-0.477,0.128-0.713
			c0.108-0.514,0.219-1.03,0.325-1.544c0.21-1.025,0.476-2.045,0.749-3.058c0.25-0.883,0.531-1.762,0.815-2.632
			c0.265-0.817,0.545-1.629,0.87-2.423c0.537-1.211,1.174-2.369,1.803-3.533c0.301-0.556,0.6-1.114,0.862-1.69
			c0.274-0.603,0.573-1.189,0.901-1.765c0.428-0.708,0.885-1.4,1.32-2.105c0.424-0.683,0.871-1.348,1.34-1.999
			c1.06-1.47,2.114-2.949,3.089-4.478c1.154-1.812,2.208-3.696,3.216-5.591c0.949-1.783,1.802-3.612,2.587-5.474
			c0.231-0.543,0.478-1.078,0.714-1.619c0.079-0.181,0.157-0.361,0.234-0.543c0.38-0.62,0.755-1.241,1.122-1.868
			c0.358-0.613,0.707-1.232,1.059-1.85c0.329-0.578,0.666-1.154,0.991-1.734c0.707-1.261,1.333-2.56,1.955-3.864
			c0.089-0.185,0.178-0.37,0.262-0.557c0.564,1.311,1.113,2.627,1.67,3.94c0.384,0.903,0.797,1.794,1.177,2.699
			c0.41,0.977,0.797,1.967,1.153,2.965c0.305,0.858,0.581,1.727,0.936,2.565c0.18,0.424,0.383,0.844,0.622,1.238
			c0.131,0.216,0.264,0.432,0.451,0.604c0.001,0.001,0.003,0.002,0.003,0.003c0.003,0.003,0.008,0.007,0.011,0.01
			c0.005,0.004,0.01,0.008,0.015,0.013c0.033,0.057,0.094,0.097,0.166,0.097c0.009,0,0.019-0.001,0.028-0.003
			c0.079-0.01,0.142-0.07,0.163-0.143c0.059-0.081,0.097-0.185,0.12-0.275c0.06-0.238,0.077-0.488,0.084-0.733
			c0.019-0.656-0.058-1.322-0.177-1.967c-0.127-0.687-0.277-1.369-0.439-2.049c-0.172-0.725-0.347-1.449-0.557-2.165
			c-0.302-1.03-0.624-2.056-0.991-3.065c-0.319-0.877-0.655-1.747-1.001-2.612c-0.723-1.812-1.46-3.618-2.11-5.458
			c-0.262-0.765-0.497-1.538-0.734-2.311c-0.246-0.801-0.498-1.601-0.738-2.405c-0.284-0.954-0.593-1.901-0.872-2.857
			c-0.303-1.035-0.595-2.074-0.913-3.105c-0.315-1.025-0.648-2.045-0.962-3.069c-0.098-0.318-0.193-0.637-0.286-0.957
			c-0.043-0.295-0.089-0.589-0.137-0.882c-0.157-0.95-0.267-1.907-0.399-2.86c-0.146-1.047-0.32-2.091-0.431-3.142
			c-0.114-1.089-0.243-2.179-0.411-3.261c-0.32-2.061-0.667-4.113-0.875-6.188c-0.186-2.219-0.243-4.45-0.166-6.676
			c0.085-1.713,0.254-3.427,0.533-5.12c0.361-1.878,0.867-3.724,1.429-5.55c0.368-1.156,0.757-2.304,1.156-3.449
			c1.456-4.185,2.948-8.357,4.337-12.565c1.395-4.226,2.68-8.487,4.093-12.708c0.375-1.12,0.758-2.238,1.155-3.351
			c-0.158,0.706-0.316,1.412-0.485,2.115c-0.514,2.142-0.962,4.299-1.346,6.469c-0.195,1.1-0.373,2.204-0.555,3.306
			c-0.179,1.085-0.359,2.17-0.506,3.26c-0.308,2.289-0.481,4.597-0.576,6.904c-0.093,2.229-0.151,4.462-0.106,6.693
			c0.045,2.246,0.189,4.501,0.478,6.729c0.282,2.179,0.63,4.346,1.115,6.49c0.244,1.081,0.484,2.164,0.772,3.234
			c0.293,1.084,0.647,2.145,1.03,3.201c0.372,1.024,0.728,2.054,1.11,3.074c0.386,1.029,0.815,2.04,1.263,3.044
			c0.381,0.851,0.746,1.71,1.124,2.563c0.001,0.001,0.001,0.002,0.001,0.003c0.005,0.011,0.01,0.022,0.015,0.033
			c0.033,0.074,0.066,0.148,0.099,0.223c0.438,0.98,0.888,1.953,1.332,2.929c0.92,2.019,1.834,4.042,2.785,6.046
			c0.489,1.029,0.993,2.05,1.491,3.074c0.462,0.949,0.947,1.888,1.399,2.842c0.449,0.947,0.873,1.906,1.304,2.861
			c0.419,0.925,0.795,1.862,1.131,2.822c0.004,0.01,0.007,0.02,0.011,0.03c0,0.001,0,0.001,0,0.002
			c0.154,0.449,0.302,0.901,0.454,1.352c0.085,0.249,0.177,0.499,0.236,0.757c0.006,0.028,0.01,0.056,0.014,0.084
			c-0.068,0.148,0.052,0.354,0.226,0.354c0.03,0,0.062-0.007,0.095-0.02c0.187-0.079,0.182-0.288,0.065-0.399
			c-0.006-0.013-0.011-0.027-0.017-0.04c-0.01-0.033-0.021-0.065-0.029-0.098c-0.08-0.301-0.133-0.61-0.206-0.914
			c-0.118-0.491-0.242-0.981-0.364-1.472c-0.248-0.999-0.51-1.993-0.806-2.978c-0.3-1-0.657-1.98-1.011-2.961
			c-0.371-1.027-0.765-2.041-1.178-3.051c-1.65-4.04-3.377-8.055-4.813-12.176c-0.012-0.033-0.023-0.065-0.036-0.097
			c-0.024-0.084-0.054-0.166-0.084-0.249c-0.939-2.744-1.702-5.542-2.311-8.377c-0.175-0.87-0.341-1.742-0.504-2.615
			c-0.205-1.096-0.435-2.188-0.63-3.285c-0.188-1.057-0.342-2.117-0.484-3.18c-0.14-1.044-0.282-2.087-0.389-3.135
			c-0.106-1.027-0.187-2.055-0.259-3.085c-0.129-2.061-0.186-4.123-0.204-6.187c-0.009-1.093-0.014-2.185,0.017-3.278
			c0.029-0.976,0.089-1.951,0.153-2.925c0.125-1.748,0.316-3.486,0.542-5.225c0.221-1.703,0.477-3.397,0.811-5.081
			c0.127-0.604,0.257-1.207,0.39-1.809c0.464-2.102,0.894-4.211,1.358-6.311c0.251-1.136,0.51-2.271,0.678-3.422
			c0.147-0.999,0.288-1.998,0.482-2.988c0.177-0.837,0.378-1.669,0.548-2.508c-0.017,0.086-0.035,0.172-0.053,0.259
			c0.123-0.599,0.275-1.195,0.367-1.799c0.216,0.374,0.423,0.753,0.625,1.136c0.032,0.069,0.067,0.136,0.104,0.201
			c0.196,0.379,0.388,0.76,0.598,1.133c0.234,0.416,0.495,0.818,0.748,1.223c1.169,1.876,2.385,3.722,3.667,5.525
			c1.295,1.82,2.61,3.625,3.977,5.392c1.356,1.751,2.807,3.422,4.285,5.07c0.008,0.009,0.017,0.018,0.026,0.029
			c0.765,0.852,1.538,1.697,2.32,2.534c1.484,1.587,3.049,3.093,4.614,4.598c1.361,1.31,2.752,2.587,4.193,3.809
			c1.077,1.211,2.194,2.386,3.334,3.539c1.333,1.348,2.668,2.694,3.929,4.111c1.256,1.438,2.471,2.912,3.687,4.383
			c0.732,0.886,1.463,1.791,2.29,2.59c0.404,0.39,0.831,0.755,1.23,1.151c0.361,0.358,0.708,0.728,1.048,1.107
			c0.471,0.544,0.91,1.113,1.331,1.695c0.42,0.58,0.851,1.155,1.264,1.742c0.289,0.434,0.569,0.873,0.867,1.302
			c0.275,0.395,0.566,0.778,0.841,1.173c0.276,0.419,0.535,0.886,0.914,1.222c0.004,0.011,0.008,0.023,0.012,0.035
			c0.001,0.002,0.001,0.003,0.002,0.005c0.023,0.064,0.073,0.09,0.125,0.09c0.09,0,0.184-0.081,0.158-0.19
			c-0.001-0.003-0.002-0.004-0.002-0.007c-0.002-0.003-0.003-0.008-0.004-0.011v-0.001c-0.003-0.008-0.007-0.017-0.009-0.024
			c0.099-0.623-0.031-1.268-0.098-1.885c-0.054-0.513-0.145-1.023-0.283-1.52c-0.132-0.477-0.304-0.944-0.468-1.411
			c-0.157-0.454-0.318-0.902-0.517-1.338c-0.222-0.491-0.47-0.97-0.723-1.446c-0.503-0.95-1.067-1.869-1.64-2.778
			c-0.333-0.529-0.66-1.064-1.016-1.578c-0.354-0.51-0.761-0.979-1.177-1.437c-0.896-0.986-1.846-1.925-2.811-2.847
			c3.177-0.333,6.377-0.456,9.565-0.57c1.888-0.067,3.777-0.098,5.666-0.158c1.964-0.063,3.926-0.144,5.89-0.204
			c3.91-0.118,7.818-0.296,11.73-0.337c0.949-0.004,1.898-0.002,2.847,0.016c3.65,0.065,7.304,0.227,10.946,0.484
			c3.596,0.253,7.18,0.68,10.757,1.132c2.32,0.297,4.632,0.641,6.934,1.052c2.245,0.401,4.472,0.912,6.677,1.493
			c4.14,1.131,8.227,2.455,12.195,4.092c2.009,0.847,3.999,1.74,5.973,2.665c0.901,0.422,1.818,0.81,2.716,1.237
			c0.768,0.366,1.539,0.711,2.28,1.13c0.997,0.602,1.94,1.279,2.863,1.989c1.13,0.881,2.225,1.802,3.325,2.72
			c0.026,0.022,0.051,0.043,0.077,0.064c0.014,0.024,0.029,0.048,0.045,0.072c0.251,0.383,0.603,0.693,1.012,0.897
			c0.061,0.03,0.122,0.058,0.184,0.082c0.173,0.152,0.346,0.306,0.515,0.464c0.563,0.523,1.112,1.061,1.656,1.604
			c0.832,0.846,1.63,1.729,2.363,2.663c0.441,0.585,0.849,1.191,1.278,1.786c0.45,0.625,0.916,1.238,1.359,1.869
			c0.694,0.99,1.344,2.011,1.96,3.051c0.391,0.683,0.771,1.371,1.118,2.076c0.337,0.691,0.652,1.392,0.957,2.098
			c0.727,1.769,1.316,3.594,1.839,5.433c0.346,1.266,0.675,2.537,0.971,3.816c0.331,1.433,0.595,2.883,0.842,4.332
			c0.476,2.8,0.892,5.61,1.291,8.42c0.548,3.87,1.151,7.731,1.997,11.549c0.433,1.951,0.861,3.908,1.376,5.838
			c0.509,1.907,1.047,3.811,1.651,5.692c0.516,1.607,1.054,3.208,1.614,4.802c0.331,0.942,0.671,1.881,1.025,2.815
			c0.36,0.949,0.735,1.9,1.194,2.807c0.671,1.325,1.439,2.595,2.238,3.844c0.308,0.482,0.647,0.942,0.99,1.399
			c0.324,0.432,0.642,0.867,0.973,1.294c0.416,0.552,0.795,1.131,1.22,1.676c0.349,0.447,0.723,0.872,1.104,1.293
			c0.322,0.355,0.639,0.715,0.963,1.069c0.177,0.193,0.361,0.383,0.553,0.562c0.118,0.109,0.233,0.226,0.358,0.327
			c0.158,0.127,0.32,0.239,0.514,0.304c0.025,0.008,0.05,0.017,0.075,0.025c0.116,0.125,0.224,0.259,0.328,0.393
			c0.106,0.141,0.207,0.285,0.298,0.435c0.026,0.047,0.05,0.094,0.074,0.141c0.016,0.144,0.042,0.285,0.087,0.425
			c0,0.003,0.001,0.006,0.002,0.008c-0.085,0.047-0.17,0.091-0.258,0.133c-0.11,0.043-0.224,0.085-0.337,0.12
			c-0.233,0.056-0.465,0.106-0.696,0.168c0.038-0.01,0.074-0.02,0.112-0.031c-0.513,0.14-1.027,0.272-1.538,0.414
			c-0.132,0.036-0.265,0.069-0.399,0.098c-0.446-0.098-0.894-0.058-1.351,0.008c-0.468,0.068-0.972,0.217-1.324,0.55
			c-0.418,0.396-0.689,0.912-0.638,1.503c0.024,0.284,0.123,0.519,0.254,0.755c0.006,0.011,0.013,0.022,0.018,0.034
			c0.075,0.133,0.145,0.271,0.236,0.396c0.063,0.085,0.125,0.165,0.191,0.24c-0.049,0.071-0.099,0.141-0.15,0.21
			c-0.357,0.439-0.77,0.833-1.145,1.256c-0.244,0.274-0.482,0.554-0.735,0.818c-0.322,0.307-0.668,0.601-1.02,0.874
			c-0.024,0.018-0.048,0.036-0.072,0.054c-0.493,0.375-0.986,0.752-1.478,1.13c-0.225,0.173-0.45,0.346-0.674,0.519
			c-0.44,0.337-0.904,0.635-1.362,0.945c-0.446,0.302-0.899,0.592-1.362,0.867c-0.914,0.517-1.892,0.924-2.839,1.373
			c-0.53,0.252-1.049,0.525-1.566,0.802c-0.559,0.3-1.132,0.567-1.714,0.816c-0.306,0.129-0.61,0.258-0.916,0.388
			c-0.875,0.367-1.763,0.7-2.655,1.024c-3.324,1.205-6.686,2.3-10.015,3.492c-1.517,0.543-3.032,1.094-4.546,1.649
			c-0.977,0.358-1.959,0.704-2.924,1.094c-0.794,0.322-1.575,0.671-2.362,1.007c-0.683,0.285-1.372,0.559-2.046,0.865
			c-0.524,0.239-1.051,0.472-1.579,0.7c-1.434,0.597-2.883,1.176-4.351,1.684c-1.387,0.48-2.789,0.909-4.193,1.338
			c-0.709,0.218-1.408,0.462-2.11,0.703c-0.701,0.241-1.405,0.47-2.104,0.716c-0.755,0.264-1.499,0.558-2.245,0.849
			c-0.769,0.299-1.542,0.581-2.316,0.863c-3.173,1.156-6.271,2.555-9.263,4.12c-1.36,0.712-2.697,1.466-4.031,2.225
			c-0.652,0.372-1.314,0.728-1.958,1.115c-0.662,0.399-1.298,0.837-1.931,1.28c-0.256,0.18-0.092,0.546,0.167,0.545
			c0.042,0,0.086-0.009,0.132-0.031c0.702-0.33,1.414-0.635,2.12-0.955c0.656-0.3,1.31-0.607,1.975-0.892
			c1.367-0.572,2.751-1.087,4.161-1.545c1.436-0.466,2.888-0.891,4.342-1.302c1.796-0.495,3.619-0.876,5.43-1.311
			c1.058-0.254,2.12-0.475,3.184-0.695c0.936-0.194,1.86-0.434,2.781-0.69c-0.013,0.003-0.024,0.008-0.037,0.011
			c1.355-0.377,2.714-0.738,4.055-1.169c1.238-0.398,2.488-0.763,3.738-1.117c0.682-0.186,1.368-0.355,2.056-0.518
			c0.734-0.173,1.464-0.365,2.2-0.532c0.752-0.171,1.51-0.327,2.254-0.532c0.675-0.185,1.349-0.378,2.024-0.567
			c0.456-0.126,0.914-0.249,1.366-0.389c1.769-0.55,3.497-1.232,5.237-1.869c1.638-0.599,3.279-1.192,4.922-1.777
			c1.675-0.595,3.358-1.166,5.028-1.777c1.609-0.588,3.197-1.22,4.775-1.888c0.647-0.27,1.297-0.535,1.928-0.84
			c0.519-0.251,1.023-0.531,1.532-0.801c0.529-0.281,1.059-0.564,1.565-0.886c0.024-0.015,0.048-0.031,0.073-0.047
			c0.306-0.049,0.612-0.095,0.919-0.138c0.291-0.04,0.583-0.079,0.873-0.121c0.111-0.015,0.223-0.031,0.334-0.047
			c0.783-0.1,1.576-0.106,2.363-0.14c0.627-0.027,1.254-0.034,1.88-0.081c1.418-0.106,2.817-0.4,4.222-0.607
			c1.767-0.234,3.545-0.347,5.327-0.376c0.016,0,0.032,0,0.047,0c2.042,0,4.088,0.093,6.124,0.249
			c1.095,0.084,2.188,0.168,3.28,0.28c1,0.103,2.002,0.179,3.002,0.28c0.661,0.107,1.315,0.248,1.967,0.404
			c1.019,0.272,2.011,0.623,2.992,1.008c0.931,0.382,1.847,0.807,2.728,1.295c1.03,0.594,2.032,1.238,2.983,1.952
			c0.543,0.417,1.084,0.84,1.603,1.285c0.494,0.424,0.966,0.873,1.429,1.328c0.897,0.901,1.772,1.83,2.549,2.836
			c0.137,0.18,0.272,0.358,0.409,0.538l0.001,0.001c0.044,0.059,0.089,0.119,0.134,0.176c0.003,0.003,0.006,0.007,0.008,0.01
			c0.016,0.021,0.031,0.041,0.046,0.062c0.681,0.9,1.314,1.834,1.885,2.807c0.413,0.736,0.792,1.495,1.122,2.271
			C348.585,339.201,348.832,339.887,349.032,340.59z M414.589,222.242c-0.042,0.434-0.106,0.862-0.192,1.289
			c-0.156,0.669-0.351,1.325-0.578,1.973c-0.121,0.32-0.255,0.632-0.407,0.938c-0.08,0.142-0.164,0.279-0.254,0.413
			c-0.165,0.219-0.34,0.429-0.523,0.632c-0.3,0.317-0.614,0.616-0.943,0.902c-0.209,0.168-0.424,0.327-0.647,0.477
			c-0.559,0.343-1.133,0.672-1.72,0.963c-0.469,0.21-0.949,0.39-1.436,0.552c-1.054,0.336-2.107,0.67-3.179,0.944
			c-0.939,0.24-1.892,0.429-2.843,0.607c-1.206,0.216-2.427,0.365-3.65,0.442c-0.459,0.021-0.918,0.036-1.378,0.044
			c-1.361,0.025-2.718,0.073-4.077,0.148c-0.593,0.033-1.186,0.077-1.775,0.146c-0.605,0.07-1.204,0.173-1.805,0.26
			c-1.212,0.175-2.426,0.325-3.63,0.542c-1.293,0.234-2.579,0.522-3.85,0.856c-1.372,0.361-2.698,0.83-4.001,1.387
			c-1.16,0.495-2.307,1.02-3.377,1.693c-1.057,0.665-2.013,1.482-2.945,2.309c-0.379,0.337-0.749,0.679-1.109,1.037
			c-0.196,0.194-0.401,0.382-0.592,0.581c-0.177,0.185-0.341,0.369-0.481,0.584c-0.064,0.098-0.13,0.197-0.197,0.295
			c-0.508,0.675-1.089,1.295-1.611,1.958c-0.224,0.285-0.439,0.576-0.649,0.872c-0.149,0.211-0.314,0.434-0.414,0.674
			c-0.106,0.256-0.2,0.533-0.172,0.814c0.04,0.418,0.414,0.793,0.846,0.777c0.44-0.016,0.835-0.271,1.222-0.461
			c0.018-0.008,0.036-0.016,0.055-0.024c-0.28,0.233-0.548,0.479-0.811,0.73c-0.503,0.48-0.986,0.972-1.446,1.493
			c-0.473,0.538-0.882,1.119-1.294,1.703c-1.4,1.984-2.366,4.263-3.027,6.592c-1.381,4.863-1.69,10.004-1.124,15.019
			c0.15,1.323,0.335,2.641,0.655,3.934c0.326,1.314,0.63,2.627,0.891,3.955c0.228,1.157,0.49,2.307,0.722,3.463
			c0.23,1.137,0.491,2.267,0.71,3.405c0.393,2.167,0.626,4.374,0.758,6.573c0.106,2.18,0.033,4.362-0.135,6.538
			c0,0.008-0.001,0.017-0.002,0.025c-0.001,0.002-0.001,0.004-0.001,0.006c0,0.002,0,0.003,0,0.005
			c-0.001,0.013-0.002,0.027-0.003,0.04c-0.136,1.595-0.322,3.176-0.652,4.743c-0.237,1.052-0.538,2.079-0.903,3.096
			c-0.293,0.794-0.6,1.582-0.954,2.351c-0.342,0.743-0.701,1.476-1.077,2.202c-0.235,0.44-0.477,0.872-0.755,1.286
			c-0.749,1.032-1.581,2.006-2.4,2.984c-0.412,0.492-0.851,0.964-1.28,1.441c-0.347,0.385-0.694,0.77-1.045,1.153
			c-0.555,0.582-1.145,1.127-1.726,1.682c-0.518,0.495-1.027,0.997-1.572,1.464c-0.912,0.753-1.843,1.486-2.802,2.178
			c-0.532,0.384-1.068,0.759-1.608,1.132c-0.137,0.095-0.275,0.19-0.413,0.285c-0.451,0.31-0.779,0.747-1.025,1.229
			c-0.124,0.242-0.197,0.49-0.243,0.743c-0.471-0.538-0.961-1.057-1.484-1.547c-0.745-0.698-1.499-1.387-2.303-2.018
			c-0.706-0.553-1.439-1.054-2.201-1.52c0.264-0.144,0.525-0.295,0.787-0.442c0.498-0.28,0.997-0.559,1.467-0.885
			c0.938-0.652,1.824-1.409,2.621-2.227c0.876-0.9,1.592-1.925,2.368-2.908c0.403-0.51,0.815-1.02,1.168-1.568
			c0.403-0.628,0.738-1.299,1.057-1.974c0.284-0.6,0.575-1.2,0.823-1.816c0.27-0.672,0.502-1.358,0.746-2.039
			c0.693-1.866,1.476-3.702,1.988-5.629c0.273-1.028,0.5-2.07,0.691-3.116c0.09-0.498,0.182-1,0.23-1.504
			c0.043-0.456,0.077-0.913,0.114-1.368c0.048-0.501,0.125-0.992,0.226-1.484c0.152-0.656,0.312-1.318,0.4-1.986
			c0.095-0.726,0.132-1.458,0.151-2.189c0.028-1.061,0.045-2.116,0.009-3.177c-0.036-1.081-0.068-2.163-0.119-3.244
			c-0.056-1.183-0.107-2.365-0.208-3.546c-0.098-1.134-0.226-2.266-0.382-3.393c-0.309-2.237-0.875-4.45-1.511-6.615
			c-0.373-1.272-0.724-2.551-1.114-3.818c-0.358-1.164-0.776-2.307-1.156-3.462c-0.271-0.837-0.55-1.67-0.825-2.507
			c-0.225-0.713-0.415-1.437-0.625-2.154c-0.177-0.612-0.342-1.227-0.494-1.845c-0.344-1.408-0.649-2.824-0.916-4.247
			c-0.173-0.952-0.332-1.907-0.458-2.867c-0.13-1.001-0.212-2.006-0.271-3.012c-0.094-2.092,0.014-4.181,0.174-6.268
			c0.153-1.728,0.427-3.449,0.658-5.168c0.232-1.718,0.474-3.441,0.842-5.137c0.008-0.039,0.017-0.078,0.026-0.117
			c0.537-2.394,1.161-4.776,1.993-7.085c0.633-1.694,1.32-3.368,2.076-5.011c0.427-0.929,0.84-1.866,1.283-2.789
			c0.355-0.738,0.728-1.469,1.104-2.197c0.4-0.738,0.855-1.446,1.337-2.131c0.713-0.996,1.454-1.976,2.255-2.904
			c-0.014,0.043-0.028,0.085-0.043,0.128c-0.155,0.468-0.303,0.939-0.466,1.403c-0.093,0.255-0.188,0.51-0.28,0.765
			c-0.022,0.059-0.045,0.119-0.072,0.176c-0.082,0.142-0.158,0.283-0.211,0.441c-0.105,0.316-0.043,0.671,0.109,0.959
			c0.347,0.663,1.168,0.766,1.808,0.536c0.323-0.115,0.612-0.322,0.881-0.532c0.29-0.226,0.568-0.465,0.852-0.698
			c0.814-0.666,1.653-1.299,2.506-1.912c0.897-0.645,1.799-1.288,2.729-1.887c1.541-0.953,3.168-1.788,4.806-2.563
			c0.813-0.368,1.64-0.704,2.473-1.026c0.847-0.329,1.694-0.665,2.559-0.949c1.12-0.355,2.259-0.641,3.405-0.9
			c1.043-0.237,2.09-0.461,3.14-0.661c1.814-0.327,3.629-0.62,5.472-0.728c2.254-0.105,4.516-0.138,6.768,0.03
			c1.427,0.124,2.858,0.264,4.272,0.499c0.719,0.12,1.434,0.262,2.152,0.388c0.762,0.133,1.526,0.263,2.284,0.419
			c0.992,0.226,1.97,0.513,2.952,0.779c0.878,0.237,1.743,0.519,2.6,0.826c1.332,0.489,2.664,1.023,3.923,1.678
			c0.491,0.255,0.984,0.511,1.484,0.745c-0.023-0.002-0.047-0.003-0.07-0.004c-0.323-0.029-0.646-0.07-0.968-0.11
			c-0.327-0.042-0.651-0.1-0.968,0.033c-0.379,0.16-0.663,0.472-0.774,0.871c-0.176,0.629,0.073,1.257,0.371,1.805
			c0.274,0.504,0.579,0.984,0.83,1.501c0.14,0.302,0.268,0.606,0.374,0.923c0.314,1.006,0.531,2.05,0.728,3.085
			c0.165,0.924,0.287,1.856,0.427,2.784c0.132,0.882,0.251,1.767,0.313,2.657C414.624,221.32,414.619,221.781,414.589,222.242z"/>
	</g>
</g>
</svg>
