<?xml version="1.0" encoding="utf-8"?>
<!-- Generator: Adobe Illustrator 27.5.0, SVG Export Plug-In . SVG Version: 6.00 Build 0)  -->
<svg version="1.1" id="Layer_1" xmlns="http://www.w3.org/2000/svg" xmlns:xlink="http://www.w3.org/1999/xlink" x="0px" y="0px"
	 viewBox="0 0 257.057 349.735" style="enable-background:new 0 0 257.057 349.735;" xml:space="preserve">
<g id="XMLID_1_">
	<g>
	</g>
</g>
<g>
	<g>
		<g>
			<path style="fill:#FFFFFF;" d="M94.682,157.335v-2.088c0,0-30.631,5.528-37.038-22.649c-6.407-28.18,7.116-53.411-13.576-57.767
				c-20.696-4.357-29.761,7.497-33.124,42.276c-3.362,34.78,16.785,86.241,66.615,75.35
				C127.387,181.567,94.682,157.335,94.682,157.335z"/>
			<path style="fill:#FBAE34;" d="M31.06,178.939c9.598-6.625,12.877-19.189,10.388-30.202c-2.245-9.93-7.896-20.312-17.524-24.786
				c-4.66-2.166-9.177-2.338-13.312-1.094c-0.433,19.285,5.848,42.059,19.76,56.537C30.601,179.245,30.834,179.095,31.06,178.939z"
				/>
			<path style="fill:#FBAE34;" d="M56.952,129.091c-2.862,3.355-4.678,7.749-4.996,11.951c-0.399,5.259,1.326,12.47,6.578,14.933
				c5.178,2.427,10.869,0.553,15.509-2.982c-7.02-2.912-13.762-8.798-16.399-20.395C57.376,131.421,57.155,130.254,56.952,129.091z"
				/>
			<path style="fill:#653E26;" d="M55.732,182.094c-0.753-7.858-4.962-16.779-12.308-20.508c-5.329-2.704-11.817-2.723-17.045,0.296
				c-2.135,1.232-3.935,2.806-5.397,4.622c7.152,12.927,18.108,23.174,33.209,26.384C55.495,189.476,56.079,185.719,55.732,182.094z
				"/>
			<path style="fill:#E4E5E6;" d="M94.682,157.335v-2.088c0,0-30.631,5.528-37.038-22.649c-6.407-28.18,7.116-53.411-13.576-57.767
				c-20.696-4.357-29.761,7.497-33.124,42.276c-3.362,34.78,16.785,86.241,66.615,75.35
				C127.387,181.567,94.682,157.335,94.682,157.335z M74.306,167.973c-0.863,8.737-11.361,13.998-19.273,14.046
				c-8.759,0.049-17.256-4.227-23.391-10.325c-7.367-7.328-11.557-17.502-14.082-27.431c-1.449-5.705-2.72-11.559-2.982-17.455
				c-0.087-1.963,0.012-3.89,0.206-5.803c-0.458-4.371-0.399-9.16,1.777-13.07c0.018-0.042,0.038-0.078,0.065-0.11
				c0.248-0.436,0.516-0.863,0.818-1.274c4.686-6.341,15.687-6.316,22.363-3.897c3.016,1.096,5.839,2.863,7.351,5.798
				c1.631,3.163,1.983,6.797,2.088,10.306c0.294,9.958,2.433,19.721,8.308,27.96c3.09,4.335,6.877,7.955,11.13,11.136
				C71.764,160.153,74.713,163.884,74.306,167.973z"/>
			<g>
				<path style="fill:#FFFFFF;" d="M59.362,83.571c0.236-1.334,5.557-23.972-16.953-27.7C19.902,52.143-1.788,69.239,5.182,85.942
					C12.154,102.646,56.772,98.107,59.362,83.571z"/>
				<path style="fill:#E4E5E6;" d="M42.409,55.871C19.902,52.143-1.788,69.239,5.182,85.942
					c6.973,16.703,51.591,12.165,54.181-2.371C59.599,82.237,64.919,59.6,42.409,55.871z M53.724,81.641
					c-0.413,1.026-1.242,3.521-2.631,3.673c-2.105,0.228-2.065-4.605-2.215-5.716c-0.318-2.364-0.648-4.725-1.152-7.042
					c-0.178,2.365-0.728,4.706-1.341,6.457c-1.467,4.188-4.335,8.31-9.075,8.979c-4.109,0.581-8.531-0.885-10.778-4.581
					c-2.864-4.706-1.432-9.829-0.392-14.84c-2.334,2.443-3.583,5.763-3.952,9.112c-0.362,3.283-0.53,7.061,1.229,9.992
					c0.141,0.229,0.023,0.625-0.271,0.668c-4.127,0.631-9.1-1.676-11.303-5.253c-1.521-2.471-1.937-5.167-1.547-7.842
					c-0.357,0.813-0.663,1.646-0.89,2.511c-0.616,2.354-0.364,4.647-0.544,7.034c-0.028,0.365-0.492,0.645-0.776,0.324
					C4.093,80.609,6.003,73.38,9.236,69.032c4.115-5.53,10.712-8.821,17.355-10.238c1.709-0.475,3.507-0.661,5.345-0.625
					c4.253,0.089,8.77,0.481,12.826,1.838c6.206,2.074,10.738,6.458,10.721,13.366C55.477,76.264,54.794,78.973,53.724,81.641z"/>
				<path style="fill:#E4E5E6;" d="M59.627,84.571c0.476-1.858,0.622-3.708,0.093-5.07c-0.026,0.048-0.047,0.092-0.053,0.129
					c-0.57,4.026-1.957,7.539-5.42,9.938c-2.56,1.771-6.889,3.721-10.113,2.485c4.892-5.566,5.543-14.868,3.044-21.461
					c-0.194-0.516-1.074,0.323-0.974,0.724c1.243,4.971,1.791,9.34,0.103,14.336c-1.588,4.694-5.464,8.476-10.363,9.404
					c-11.865,2.245-12.146-15.023-11.841-22.526c0.017-0.422-0.534-0.075-0.547,0.197c-0.357,6.5-1.114,13.292,1.974,19.284
					c0.439,0.854,0.983,1.578,1.606,2.187c-6.534,1.854-12.824-0.992-15.576-7.387c-0.451-1.052-0.806-2.225-1.058-3.463
					c-0.601-1.59-1.012-3.24-1.205-4.845c-0.17-1.403-0.123-2.723,0.085-3.986c-0.488,1.88-0.702,3.843-0.625,5.705
					c0.211,4.962,1.769,10.077,5.678,13.309c3.761,3.111,8.638,3.636,12.94,1.677c0.144-0.066,0.297-0.246,0.411-0.441
					c2.685,2.11,6.498,2.384,9.856,1.415c2.248-0.651,4.122-1.786,5.647-3.247c3.319,3.009,9.55-0.877,12.371-2.83
					C57.426,88.881,58.805,86.813,59.627,84.571z"/>
			</g>
		</g>
		<path style="fill:#FFFFFF;" d="M215.168,192.131c-17.098-38.171-41.281-39.669-41.281-39.669h-66.593
			c0,0-24.186,1.498-41.284,39.669c-17.098,38.174-6.593,99.859,36.01,109c3.391,0.728,6.788,1.372,10.172,1.929
			c8.375,1.916,18.045,2.763,28.399,2.618c10.354,0.145,20.021-0.702,28.399-2.618c3.382-0.557,6.778-1.201,10.17-1.929
			C221.763,291.99,232.267,230.305,215.168,192.131z"/>
		<path style="fill:#E4E5E6;" d="M201.745,226.568c-7.171,12.115-11.537,25.693-19.01,37.643
			c-6.127,9.798-14.667,17.73-25.782,21.461c-11.619,3.899-25.959,3.491-36.621-3.098c-9.414-5.82-13.834-16.744-17.691-26.612
			c-4.517-11.555-9.229-22.615-17.724-31.915c-3.969-4.347-8.641-8.225-14.177-10.394c-3.465-1.36-7.04-2.088-10.674-2.358
			c-7.127,36.871,5.953,82.112,41.953,89.836c3.391,0.728,6.788,1.372,10.172,1.929c8.375,1.916,18.045,2.763,28.399,2.618
			c10.354,0.145,20.021-0.702,28.399-2.618c3.382-0.557,6.778-1.201,10.17-1.929c38.314-8.22,50.663-58.937,40.325-96.831
			C212.34,210.58,206.564,218.426,201.745,226.568z"/>
		<path style="fill:#E4E5E6;" d="M60.376,222.935c2.108-15.549,7.064-30.288,15.652-43.468c4.073-6.249,8.417-12.33,13.726-17.597
			c1.798-1.783,3.654-3.505,5.53-5.202c-8.473,4.698-19.933,14.605-29.274,35.463c-6.627,14.797-9.106,33.124-7.177,50.556
			C58.956,235.982,59.506,229.346,60.376,222.935z"/>
		<path style="fill:#E4E5E6;" d="M200.666,171.486c9.241,11.141,14.457,25.223,17.316,39.289
			c2.993,14.721,4.033,29.566,2.167,44.423c5.089-20.808,3.263-44.669-4.98-63.067c-9.192-20.525-20.433-30.442-28.863-35.23
			C191.661,161.252,196.444,166.399,200.666,171.486z"/>
		<path style="fill:#E4E5E6;" d="M220.291,220.137c-2.281-2.253-5.059-4.149-7.963-5.508c-5.788-2.711-12.299-4.259-18.547-2.173
			c-12.074,4.031-18.913,16.003-22.809,27.393c-4.126,12.066-6.726,24.659-10.378,36.877c-1.973,6.601-4.015,13.128-4.949,19.971
			c-0.388,2.84-0.72,5.688-1.113,8.522c5.122-0.425,9.979-1.133,14.457-2.158c3.382-0.557,6.778-1.201,10.17-1.929
			c32.276-6.924,46.12-44.004,43.506-78.172C221.924,221.972,221.166,221.002,220.291,220.137z"/>
		<path style="fill:#E4E5E6;" d="M138.097,186.713c13.014,0.528,25.689,0.053,38.195-4.007c9.094-2.95,17.606-7.243,25.433-12.614
			c-14.094-16.775-27.838-17.63-27.838-17.63h-66.593c0,0-13.444,0.837-27.371,17.079
			C94.136,184.421,118.816,185.931,138.097,186.713z"/>
		<path style="opacity:0.3;fill:#E6E3CD;" d="M99.524,287.079c-0.108-0.432-0.08-1.121-0.266-1.51
			c-0.542-1.137-0.953-2.313-1.332-3.511c-0.678-2.149-1.357-4.2-2.961-5.848c-0.143-0.15-0.47,0.24-0.322,0.399
			c1.425,1.556,2.108,3.412,2.729,5.392c0.512,1.626,1.254,3.19,1.595,4.85c0.27,1.3,0.677,2.572,0.967,3.868
			c0.256,1.143,0.689,2.902,0.036,4.005c-2.308-3.681-3.232-8.183-4.333-12.325c-1.205-4.526-2.58-9.003-4.159-13.412
			c-1.458-4.073-2.095-8.383-3.538-12.474c-1.427-4.048-3.595-7.76-6.614-10.823c-0.101-0.101-0.328,0.169-0.222,0.276
			c3.011,3.089,5.071,6.779,6.532,10.814c1.481,4.089,2.052,8.415,3.518,12.492c1.695,4.712,3.108,9.519,4.376,14.361
			c1.029,3.935,1.969,8.159,4.182,11.63c0.081,0.129,0.242,0.012,0.313-0.07C101.78,293.185,100.066,289.268,99.524,287.079z"/>
		<g>
			<path style="fill:#E4E5E6;" d="M75.312,221.102c0,0-20.074-24.522-39.504,1.153C15.246,249.43,48.127,323.387,48.127,323.387
				l47.439-1.737C95.566,321.649,92.719,244.305,75.312,221.102z"/>
			<path style="fill:#FFFFFF;" d="M74.688,226.019c0,0-19.112-23.344-37.608,1.099c-19.572,25.866,11.729,96.269,11.729,96.269
				l45.16-1.654C93.97,321.732,91.258,248.105,74.688,226.019z"/>
			<path style="fill:#FBAE34;" d="M53.873,232.856c-9.737-0.773-17.555,10.531-16.767,20.435c0.472,5.906,2.609,13.395,8.023,16.688
				c7.348,4.468,15.524-2.823,18.59-9.211c3.745-7.804,4.342-21.194-4.085-26.046C57.676,233.593,55.739,233.004,53.873,232.856z"/>
			<path style="fill:#E4E5E6;" d="M87.884,264.997c-0.007,1.842-0.069,3.683-0.212,5.521c-0.593,7.695-2.463,16.279-8.417,21.706
				c-6.497,5.92-16.797,7.326-24.993,4.499c-12.913-4.456-19.248-17.23-22.48-30.476c3.975,27.771,17.028,57.14,17.028,57.14
				l45.16-1.654C93.97,321.732,92.882,292.248,87.884,264.997z"/>
			<path style="fill:#FFFFFF;" d="M96.193,320.56c0.233-1.309,5.474-17.269-16.617-20.929c-22.09-3.66-43.398,6.864-36.555,23.255
				C49.862,339.279,93.651,334.827,96.193,320.56z"/>
			<path style="fill:#E4E5E6;" d="M96.453,321.543c0.468-1.824,0.61-3.64,0.093-4.977c-0.026,0.047-0.046,0.091-0.053,0.127
				c-0.562,3.95-1.92,7.397-5.318,9.753c-2.512,1.737-6.762,3.65-9.926,2.439c4.799-5.463,5.439-14.592,2.986-21.064
				c-0.189-0.506-1.054,0.318-0.955,0.71c1.22,4.881,1.758,9.166,0.101,14.07c-1.558,4.608-5.361,8.319-10.17,9.229
				c-11.646,2.205-11.92-14.743-11.623-22.105c0.018-0.417-0.522-0.075-0.538,0.191c-0.347,6.381-1.091,13.048,1.938,18.929
				c0.432,0.837,0.968,1.55,1.578,2.145c-6.411,1.818-12.588-0.976-15.287-7.252c-0.443-1.031-0.79-2.181-1.038-3.397
				c-0.59-1.56-0.993-3.177-1.183-4.753c-0.166-1.378-0.121-2.674,0.084-3.912c-0.479,1.845-0.69,3.77-0.612,5.598
				c0.205,4.871,1.735,9.89,5.57,13.063c3.692,3.054,8.477,3.567,12.7,1.644c0.141-0.064,0.292-0.24,0.404-0.432
				c2.635,2.071,6.375,2.34,9.671,1.387c2.209-0.639,4.045-1.75,5.544-3.187c3.259,2.954,9.372-0.86,12.14-2.777
				C94.293,325.772,95.647,323.74,96.453,321.543z"/>
			<path style="fill:#E4E5E6;" d="M93.271,305.847c0.589,1.815,0.79,3.757,0.48,5.71c-0.629,3.994-2.502,8.162-6.462,9.738
				c-0.272,0.107-0.611-0.115-0.674-0.381c-0.602-2.541-0.137-5.18-1.033-7.669c-0.144-0.398-0.311-0.782-0.47-1.173
				c0.002,0.328-0.013,0.655-0.06,0.981c-0.403,2.751-1.435,5.541-3.213,7.715c-2.866,3.501-7.533,5.901-12.101,4.308
				c-6.852-2.395-7.794-10.66-7.028-17.158c-3.38,5.242-2.486,12.522-0.768,18.223c0.102,0.345-0.18,0.691-0.528,0.695
				c-4.894,0.03-10.323-1.264-12.316-6.297c-1.925-4.854-0.762-9.501,2.026-13.413c-1.718,1.563-3.063,3.588-3.777,5.742
				c-1.328,3.997-0.349,7.651,0.655,11.589c0.143,0.559-0.509,0.881-0.917,0.534c-2.987-2.537-5.049-5.46-5.317-9.265
				c-0.188,2.227,0.193,4.623,1.254,7.159c6.841,16.394,50.63,11.941,53.172-2.326C96.353,319.66,98.88,311.839,93.271,305.847z"/>
			<path style="fill:#653E26;" d="M69.992,265.273c0.103-1.129,0.115-2.533-0.021-3.956c-0.141-0.178-0.281-0.354-0.445-0.526
				c-7.497-7.957-14.398,1.719-14.986,9.604c0.735,2.766,2.293,5.313,5.1,5.883C66.068,277.584,69.505,270.506,69.992,265.273z"/>
		</g>
		<g>
			<path style="fill:#E4E5E6;" d="M206.931,221.102c0,0,20.076-24.522,39.507,1.153c20.561,27.174-12.32,101.131-12.32,101.131
				l-47.44-1.737C186.677,321.649,189.525,244.305,206.931,221.102z"/>
			<path style="fill:#FFFFFF;" d="M207.558,226.019c0,0,19.108-23.344,37.606,1.099c19.572,25.866-11.729,96.269-11.729,96.269
				l-45.158-1.654C188.277,321.732,190.988,248.105,207.558,226.019z"/>
			<path style="fill:#653E26;" d="M237.689,271.069c-4.401,3.173-7.405,9.641-4.795,14.868c2.209,4.425,6.579,7.047,11.295,7.784
				c2.262-7.552,4.378-15.888,5.767-24.195C246.043,267.916,241.286,268.476,237.689,271.069z"/>
			<path style="fill:#E4E5E6;" d="M194.36,264.997c0.008,1.842,0.072,3.683,0.214,5.521c0.592,7.695,2.46,16.279,8.414,21.706
				c6.5,5.92,16.799,7.326,24.994,4.499c12.913-4.456,19.249-17.23,22.482-30.476c-3.977,27.771-17.029,57.14-17.029,57.14
				l-45.158-1.654C188.277,321.732,189.364,292.248,194.36,264.997z"/>
			<path style="fill:#FFFFFF;" d="M186.051,320.56c-0.232-1.309-5.475-17.269,16.617-20.929c22.09-3.66,43.398,6.864,36.555,23.255
				C232.382,339.279,188.592,334.827,186.051,320.56z"/>
			<path style="fill:#E4E5E6;" d="M185.792,321.543c-0.469-1.824-0.612-3.64-0.093-4.977c0.026,0.047,0.045,0.091,0.051,0.127
				c0.563,3.95,1.921,7.397,5.321,9.753c2.513,1.737,6.76,3.65,9.926,2.439c-4.801-5.463-5.441-14.592-2.989-21.064
				c0.191-0.506,1.055,0.318,0.956,0.71c-1.22,4.881-1.758,9.166-0.1,14.07c1.557,4.608,5.363,8.319,10.171,9.229
				c11.646,2.205,11.919-14.743,11.621-22.105c-0.017-0.417,0.523-0.075,0.536,0.191c0.351,6.381,1.096,13.048-1.936,18.929
				c-0.433,0.837-0.967,1.55-1.578,2.145c6.413,1.818,12.587-0.976,15.287-7.252c0.443-1.031,0.791-2.181,1.038-3.397
				c0.591-1.56,0.992-3.177,1.182-4.753c0.167-1.378,0.121-2.674-0.083-3.912c0.481,1.845,0.691,3.77,0.613,5.598
				c-0.206,4.871-1.737,9.89-5.571,13.063c-3.692,3.054-8.479,3.567-12.701,1.644c-0.14-0.064-0.29-0.24-0.401-0.432
				c-2.636,2.071-6.379,2.34-9.674,1.387c-2.207-0.639-4.045-1.75-5.543-3.187c-3.257,2.954-9.372-0.86-12.141-2.777
				C187.951,325.772,186.597,323.74,185.792,321.543z"/>
			<path style="fill:#E4E5E6;" d="M188.975,305.847c-0.59,1.815-0.79,3.757-0.481,5.71c0.629,3.994,2.503,8.162,6.464,9.738
				c0.271,0.107,0.61-0.115,0.675-0.381c0.603-2.541,0.135-5.18,1.03-7.669c0.145-0.398,0.311-0.782,0.47-1.173
				c-0.002,0.328,0.014,0.655,0.063,0.981c0.402,2.751,1.433,5.541,3.212,7.715c2.868,3.501,7.534,5.901,12.101,4.308
				c6.854-2.395,7.794-10.66,7.028-17.158c3.38,5.242,2.483,12.522,0.768,18.223c-0.103,0.345,0.18,0.691,0.528,0.695
				c4.893,0.03,10.323-1.264,12.318-6.297c1.923-4.854,0.76-9.501-2.027-13.413c1.717,1.563,3.061,3.588,3.775,5.742
				c1.326,3.997,0.349,7.651-0.653,11.589c-0.142,0.559,0.508,0.881,0.917,0.534c2.987-2.537,5.047-5.46,5.316-9.265
				c0.188,2.227-0.193,4.623-1.255,7.159c-6.841,16.394-50.631,11.941-53.172-2.326C185.89,319.66,183.364,311.839,188.975,305.847z
				"/>
		</g>
		<g>
			<path style="fill:#653E26;" d="M132.917,42.587c0,0-37.877-46.7-48.911-35.647c-11.033,11.049-27.05,82.461-12.8,81.012
				C85.457,86.504,132.917,42.587,132.917,42.587z"/>
			<path style="fill:#DA8054;" d="M127.606,43.221c0,0-31.899-39.334-41.194-30.026C77.117,22.503,63.627,82.65,75.63,81.432
				C87.632,80.212,127.606,43.221,127.606,43.221z"/>
			<path style="fill:#653E26;" d="M146.672,42.587c0,0,37.873-46.7,48.909-35.647c11.033,11.049,27.05,82.461,12.799,81.012
				C194.131,86.504,146.672,42.587,146.672,42.587z"/>
			<path style="fill:#DA8054;" d="M151.982,43.221c0,0,31.9-39.334,41.195-30.026c9.292,9.309,22.785,69.456,10.781,68.237
				C191.956,80.212,151.982,43.221,151.982,43.221z"/>
			<path style="fill:#FFFFFF;" d="M219.273,101.666c0,39.306-35.229,71.172-78.684,71.172c-43.457,0-78.684-31.866-78.684-71.172
				c0-39.309,35.226-71.174,78.684-71.174C184.045,30.492,219.273,62.357,219.273,101.666z"/>
			<g>
				<path style="fill:#95705B;" d="M100.508,120.13c-0.135,0-0.27-0.036-0.393-0.11c-12.411-7.675-26.442-8.417-26.584-8.423
					c-0.413-0.021-0.732-0.371-0.713-0.784c0.021-0.413,0.383-0.722,0.785-0.713c0.142,0.006,14.563,0.77,27.298,8.647
					c0.353,0.216,0.46,0.678,0.244,1.028C101.004,120.005,100.758,120.13,100.508,120.13z"/>
				<path style="fill:#95705B;" d="M100.509,124.648c-0.06,0-0.123-0.006-0.185-0.023c-12.9-3.266-27.15-0.726-27.29-0.698
					c-0.409,0.073-0.798-0.195-0.872-0.603c-0.075-0.406,0.193-0.796,0.601-0.872c0.146-0.024,14.706-2.624,27.932,0.724
					c0.399,0.101,0.642,0.506,0.54,0.91C101.147,124.423,100.843,124.648,100.509,124.648z"/>
				<path style="fill:#95705B;" d="M75.911,134.52c-0.277,0-0.54-0.149-0.671-0.413c-0.183-0.369-0.034-0.82,0.335-1.004
					c0.447-0.224,11.133-5.46,26.289-5.099c0.414,0.01,0.74,0.353,0.73,0.766c-0.009,0.415-0.345,0.772-0.765,0.73
					c-14.791-0.343-25.481,4.892-25.586,4.942C76.136,134.496,76.022,134.52,75.911,134.52z"/>
			</g>
			<g>
				<path style="fill:#95705B;" d="M179.71,120.13c0.135,0,0.271-0.036,0.393-0.11c12.409-7.675,26.443-8.417,26.584-8.423
					c0.411-0.021,0.732-0.371,0.712-0.784c-0.021-0.413-0.385-0.722-0.782-0.713c-0.145,0.006-14.565,0.77-27.302,8.647
					c-0.351,0.216-0.461,0.678-0.243,1.028C179.214,120.005,179.458,120.13,179.71,120.13z"/>
				<path style="fill:#95705B;" d="M179.708,124.648c0.061,0,0.123-0.006,0.184-0.023c12.9-3.266,27.151-0.726,27.293-0.698
					c0.409,0.073,0.798-0.195,0.871-0.603c0.074-0.406-0.194-0.796-0.601-0.872c-0.147-0.024-14.705-2.624-27.931,0.724
					c-0.401,0.101-0.645,0.506-0.542,0.91C179.069,124.423,179.373,124.648,179.708,124.648z"/>
				<path style="fill:#95705B;" d="M204.307,134.52c0.274,0,0.54-0.149,0.671-0.413c0.186-0.369,0.034-0.82-0.335-1.004
					c-0.449-0.224-11.135-5.46-26.291-5.099c-0.413,0.01-0.738,0.353-0.729,0.766c0.01,0.415,0.345,0.772,0.766,0.73
					c14.793-0.343,25.48,4.892,25.586,4.942C204.081,134.496,204.195,134.52,204.307,134.52z"/>
			</g>
			<linearGradient id="SVGID_1_" gradientUnits="userSpaceOnUse" x1="92.1441" y1="128.083" x2="92.1441" y2="96.9512">
				<stop  offset="0" style="stop-color:#FFFFFF"/>
				<stop  offset="1" style="stop-color:#F9AE92"/>
			</linearGradient>
			<path style="fill:url(#SVGID_1_);" d="M92.145,97.069c-8.47,0-15.336,6.866-15.336,15.334c0,8.471,6.866,15.337,15.336,15.337
				c8.469,0,15.335-6.866,15.335-15.337C107.479,103.936,100.613,97.069,92.145,97.069z M85.05,108.056
				c-1.231,1.01-3.037,0.604-3.851-0.729c-0.961-1.564-0.238-3.217,1.157-4.209c0.106-0.074,0.209-0.09,0.306-0.078
				c0.926-0.439,2.04-0.271,2.826,0.689C86.622,105.117,86.444,106.911,85.05,108.056z M86.935,103.805
				c-0.441,0.06-0.964,0.011-1.288-0.338c-0.274-0.295-0.432-0.7-0.419-1.105c0.012-0.383,0.131-0.794,0.437-1.046
				c0.313-0.26,0.668-0.282,1.022-0.191c0.243-0.048,0.491-0.04,0.722,0.083c0.296,0.159,0.516,0.481,0.572,0.813
				C88.1,102.741,87.769,103.69,86.935,103.805z"/>
			
				<linearGradient id="SVGID_00000088832331559410884150000004172835864492295845_" gradientUnits="userSpaceOnUse" x1="184.1821" y1="128.083" x2="184.1821" y2="96.9512">
				<stop  offset="0" style="stop-color:#FFFFFF"/>
				<stop  offset="1" style="stop-color:#F9AE92"/>
			</linearGradient>
			<path style="fill:url(#SVGID_00000088832331559410884150000004172835864492295845_);" d="M184.182,97.069
				c-8.469,0-15.335,6.866-15.335,15.334c0,8.471,6.866,15.337,15.335,15.337c8.47,0,15.336-6.866,15.336-15.337
				C199.518,103.936,192.651,97.069,184.182,97.069z M177.088,108.056c-1.23,1.01-3.035,0.604-3.854-0.729
				c-0.958-1.564-0.238-3.217,1.158-4.209c0.107-0.074,0.21-0.09,0.305-0.078c0.929-0.439,2.042-0.271,2.826,0.689
				C178.658,105.117,178.482,106.911,177.088,108.056z M178.974,103.805c-0.443,0.06-0.967,0.011-1.291-0.338
				c-0.272-0.295-0.43-0.7-0.416-1.105c0.013-0.383,0.128-0.794,0.436-1.046c0.313-0.26,0.667-0.282,1.024-0.191
				c0.241-0.048,0.487-0.04,0.721,0.083c0.295,0.159,0.515,0.481,0.569,0.813C180.137,102.741,179.807,103.69,178.974,103.805z"/>
			<g>
				<path style="fill:#AA6C4A;" d="M139.342,107.042c-3.839,0.205-7.33,1.364-10.621,3.096c2.618,6.425,8.014,16.768,14.084,11.699
					c4.89-4.087,6.544-8.827,7.064-12.139C146.554,108.124,143.293,106.83,139.342,107.042z"/>
				<g>
					<path style="fill:#95705B;" d="M94.013,89.707c0,0,1.866-9.148,13.914-8.925c12.049,0.222,16.513,18.074,16.513,18.074
						S109.328,76.542,94.013,89.707z"/>
					<path style="fill:#95705B;" d="M184.058,89.707c0,0-1.863-9.148-13.913-8.925c-12.049,0.222-16.513,18.074-16.513,18.074
						S168.744,76.542,184.058,89.707z"/>
					<g>
						<path style="fill:#95705B;" d="M139.012,120.052c0,0,0.064,0.231,0.155,0.671c0.089,0.441,0.22,1.09,0.306,1.929
							c0.091,0.839,0.16,1.868,0.109,3.054c-0.046,1.183-0.186,2.529-0.574,3.966c-0.397,1.425-1.01,2.971-2.066,4.372
							c-0.516,0.711-1.145,1.366-1.844,1.975c-0.714,0.587-1.508,1.119-2.374,1.53c-1.722,0.847-3.652,1.354-5.611,1.521
							c-0.534,0.053-0.959,0.061-1.445,0.093c-0.476,0.023-0.991,0.014-1.487,0.019c-0.991-0.013-1.973-0.079-2.958-0.188
							c-1.964-0.244-3.898-0.716-5.734-1.379c-1.842-0.655-3.558-1.563-5.101-2.608c-1.55-1.044-2.874-2.319-3.93-3.684
							c-0.534-0.676-0.974-1.401-1.353-2.121c-0.349-0.739-0.643-1.475-0.824-2.211c-0.387-1.471-0.383-2.89-0.153-4.077
							c0.229-1.194,0.633-2.175,1.072-2.906c0.189-0.379,0.423-0.684,0.61-0.953c0.18-0.273,0.363-0.483,0.511-0.653
							c0.294-0.342,0.449-0.525,0.449-0.525s-0.125,0.205-0.359,0.588c-0.118,0.189-0.262,0.422-0.396,0.718
							c-0.137,0.292-0.32,0.61-0.454,1c-0.328,0.752-0.572,1.727-0.671,2.832c-0.085,1.11,0.053,2.368,0.496,3.643
							c0.44,1.275,1.213,2.548,2.235,3.719c1.025,1.167,2.297,2.241,3.744,3.154c1.443,0.921,3.07,1.654,4.771,2.257
							c1.705,0.593,3.507,1.006,5.333,1.216c0.911,0.11,1.834,0.184,2.743,0.209c0.454-0.004,0.891,0.017,1.358,0
							c0.456-0.024,0.978-0.034,1.377-0.072c1.783-0.144,3.507-0.494,5.023-1.184c1.521-0.669,2.813-1.66,3.799-2.833
							c0.987-1.173,1.661-2.508,2.146-3.796c0.921-2.613,1.112-5.008,1.163-6.656C139.118,121.007,139.012,120.052,139.012,120.052z
							"/>
						<path style="fill:#95705B;" d="M139.576,120.052c0,0-0.104,0.955-0.063,2.618c0.052,1.648,0.241,4.043,1.161,6.656
							c0.487,1.288,1.162,2.623,2.148,3.796c0.985,1.173,2.275,2.164,3.799,2.833c1.514,0.689,3.239,1.04,5.02,1.184
							c0.401,0.038,0.921,0.048,1.379,0.072c0.471,0.017,0.904-0.004,1.358,0c0.91-0.024,1.832-0.099,2.742-0.209
							c1.828-0.21,3.63-0.623,5.333-1.216c1.701-0.603,3.326-1.336,4.773-2.257c1.445-0.913,2.716-1.987,3.743-3.154
							c1.021-1.171,1.796-2.443,2.233-3.719c0.443-1.275,0.584-2.533,0.496-3.643c-0.096-1.105-0.341-2.08-0.668-2.832
							c-0.137-0.39-0.318-0.708-0.457-1c-0.133-0.296-0.276-0.528-0.395-0.718c-0.233-0.383-0.358-0.588-0.358-0.588
							s0.155,0.184,0.447,0.525c0.147,0.17,0.331,0.381,0.512,0.653c0.189,0.269,0.422,0.574,0.611,0.953
							c0.438,0.731,0.844,1.712,1.07,2.906c0.232,1.188,0.233,2.606-0.153,4.077c-0.18,0.736-0.474,1.472-0.822,2.211
							c-0.381,0.72-0.818,1.445-1.354,2.121c-1.055,1.364-2.378,2.64-3.929,3.684c-1.544,1.046-3.259,1.953-5.1,2.608
							c-1.836,0.663-3.771,1.135-5.734,1.379c-0.985,0.108-1.969,0.175-2.96,0.188c-0.494-0.005-1.01,0.004-1.486-0.019
							c-0.487-0.032-0.91-0.04-1.444-0.093c-1.959-0.167-3.89-0.675-5.611-1.521c-0.866-0.411-1.659-0.943-2.374-1.53
							c-0.699-0.608-1.33-1.264-1.843-1.975c-1.058-1.401-1.672-2.947-2.067-4.372c-0.391-1.436-0.53-2.783-0.576-3.966
							c-0.049-1.186,0.023-2.215,0.11-3.054c0.087-0.839,0.216-1.487,0.305-1.929C139.514,120.283,139.576,120.052,139.576,120.052z
							"/>
					</g>
					<path style="fill:#AA6C4A;" d="M140.418,116.255c-5.195,0.372-9.005-2.07-11.586-6.172c-0.037,0.019-0.073,0.036-0.111,0.055
						c2.618,6.425,8.014,16.768,14.084,11.699c4.247-3.549,6.051-7.59,6.794-10.76C147.319,113.9,144.262,115.98,140.418,116.255z"
						/>
				</g>
			</g>
			<path style="fill:#653E26;" d="M84.468,81.645c7.598-3.094,15.003-7.374,21.315-12.631c7.489-6.235,14.422-13.122,19.789-21.312
				c3.382-5.159,6.325-10.889,7.802-16.909c-33.467,2.753-60.881,24.458-69.011,53.155C70.697,86.316,78.506,84.069,84.468,81.645z"
				/>
			<path style="fill:#653E26;" d="M152.16,51.911c6.015,7.167,13.276,13.921,21.567,18.381c8.014,4.311,16.747,7.648,25.663,9.513
				c5.293,1.106,11.032,1.842,16.541,1.288c-9.734-29.204-39.648-50.493-75.08-50.597C142.392,38.445,147.054,45.83,152.16,51.911z"
				/>
			<path style="fill:#FBAE34;" d="M173.659,59.696c11.212,7.389,24.807,13.53,38.066,11.551
				c-11.466-21.899-34.91-37.646-62.686-40.331C153.082,43.236,162.733,52.495,173.659,59.696z"/>
			<path style="fill:#E4E5E6;" d="M140.59,30.492c-43.457,0-78.684,31.865-78.684,71.174c0,39.306,35.226,71.172,78.684,71.172
				c43.455,0,78.684-31.866,78.684-71.172C219.273,62.357,184.045,30.492,140.59,30.492z M140.59,162.666
				c-41.25,0-74.69-27.97-74.69-62.473c0-34.503,33.439-62.474,74.69-62.474s74.688,27.971,74.688,62.474
				C215.278,134.696,181.84,162.666,140.59,162.666z"/>
		</g>
		<g>
			<path style="fill:#D51843;" d="M137.26,178.868c-31.541,0-50.975-11.145-52.174-11.854c-3.206-1.889-4.271-6.019-2.382-9.225
				c1.888-3.198,6.006-4.265,9.208-2.389c0.202,0.115,10.065,5.722,26.77,8.447c15.461,2.525,40.168,3.031,70.058-8.893
				c3.458-1.379,7.376,0.305,8.755,3.761c1.377,3.455-0.307,7.375-3.763,8.753C172.337,176.005,153.241,178.868,137.26,178.868z"/>
			<path style="fill:#D51843;" d="M166.678,165.637c5.553-1.408,11.18-2.74,16.638-4.476c3.221-1.026,6.093-2.336,8.834-4.321
				c0.733-0.53,1.459-1.068,2.187-1.602c-1.675-0.868-3.704-1.036-5.597-0.282c-29.89,11.924-54.597,11.418-70.058,8.893
				c-16.704-2.726-26.567-8.332-26.77-8.447c-1.69-0.991-3.632-1.152-5.369-0.623c1.818,1.413,3.751,2.665,5.882,3.594
				c6.002,2.618,11.872,5.561,17.9,8.116c3.408,1.443,8.906,2.727,10.747,6.321c0.852,1.664,1.226,3.428,1.453,5.226
				c4.559,0.521,9.475,0.834,14.734,0.834c4.517,0,9.286-0.239,14.28-0.76C151.508,170.037,159.984,167.334,166.678,165.637z"/>
			<g>
				<path style="fill:#894B11;" d="M148.696,176.793c0,6.726-5.452,12.179-12.178,12.179s-12.176-5.453-12.176-12.179
					c0-6.724,5.45-12.176,12.176-12.176S148.696,170.069,148.696,176.793z"/>
				<path style="fill:#FFC432;" d="M129.317,186.598c2.262,0.633,4.44-0.409,4.852-2.924c0.378-2.309-0.53-3.042-2.145-4.461
					c-0.661-0.582-0.895-1.069-1.137-1.914c-0.972-3.436,4.153-5.192,6.665-4.781c2.412,0.392,6.435,3.006,4.188,5.977
					c-0.56,0.739-1.128,1.165-1.953,1.6c-1.817,0.954-3.253,4.247-0.701,5.533c2.437,1.227,5.001,0.213,7.081-1.422
					c1.58-2.054,2.529-4.619,2.529-7.412c0-6.724-5.452-12.176-12.178-12.176s-12.176,5.452-12.176,12.176
					C124.343,180.821,126.306,184.379,129.317,186.598z"/>
				<path style="fill:#E4E5E6;" d="M132.02,169.374c-0.316-0.774-1.509-0.854-2.179-0.699c-0.554,0.127-1.035,0.514-1.429,0.967
					c-0.726,0.597-1.203,1.514-1.37,2.472c-0.359,2.069,1.697,2.99,3.273,1.819C131.599,172.98,132.667,170.968,132.02,169.374z"/>
				<path style="fill:#E4E5E6;" d="M129.458,176.723c-0.342-0.474-1.027-0.488-1.493-0.176c-0.193,0.129-0.367,0.284-0.52,0.457
					c-0.559,0.381-0.75,1.193-0.405,1.82c0.229,0.417,0.705,0.502,1.129,0.401c0.588-0.138,1.067-0.659,1.294-1.195
					C129.632,177.638,129.725,177.095,129.458,176.723z"/>
			</g>
		</g>
	</g>
	<g>
		<path style="fill:#FFFFFF;" d="M203.64,169.628c0,0-24.883-9.531-37.019,29.724c-12.137,39.253-10.867,134.252-10.867,134.252
			l32.228-6.117c0,0,36.771-94.92,35.536-122.949C222.197,174.605,209.988,170.952,203.64,169.628z"/>
		<path style="fill:#653E26;" d="M202.539,216.378c-1.729,7.087-0.107,15.203,5.746,20.004c2.749,2.257,5.835,3.431,9.013,3.725
			c3.948-14.721,6.564-27.749,6.22-35.569c-0.141-3.153-0.405-5.995-0.766-8.592c-3.235,0.657-6.468,2.603-9.023,4.674
			C208.696,204.696,204.113,209.936,202.539,216.378z"/>
		<path style="fill:#FBAE34;" d="M164.643,282.536c4.5-1.256,8.73-3.169,12.093-6.484c8.287-8.173,11.816-20.16,13.101-31.455
			c1.187-10.44,0.467-21.946-4.438-31.441c-2.514-4.871-6.242-9.602-11.396-11.853c-2.253-0.985-4.793-1.739-7.354-2.031
			c-0.01,0.027-0.02,0.054-0.026,0.08c-6.218,20.108-8.916,54.841-10.069,83.94C159.215,283.713,162.191,283.221,164.643,282.536z"
			/>
		<path style="fill:#E4E5E6;" d="M223.518,204.537c-1.32-29.932-13.529-33.585-19.878-34.909c0,0-24.883-9.531-37.019,29.724
			c-12.137,39.253-10.867,134.252-10.867,134.252l32.228-6.117C187.982,327.486,224.753,232.566,223.518,204.537z M216.695,223.857
			c-1.828,14.777-5.893,29.261-11.407,43.074c-3.579,8.961-6.913,18.593-12.262,26.677c-4.765,7.197-11.755,12.833-20.673,9.292
			c-10.12-4.016-10.692-16.577-10.454-25.814c0.398-15.331,0.955-30.476,3.441-45.645c1.275-7.777,2.898-15.475,4.571-23.175
			c1.058-4.878,2.147-9.775,3.78-14.5c2.247-6.497,5.657-13.63,11.647-17.036c1.37-1.157,2.882-2.135,4.573-2.858
			c9.372-4,18.254,0.731,22.613,9.473C218.538,195.403,218.31,210.815,216.695,223.857z"/>
		<g>
			<path style="fill:#FFFFFF;" d="M145.521,331.588c-0.233-1.31-5.474-17.27,16.617-20.929c22.09-3.66,43.399,6.863,36.557,23.255
				C191.855,350.308,148.064,345.855,145.521,331.588z"/>
			<path style="fill:#E4E5E6;" d="M145.262,332.569c-0.468-1.822-0.61-3.638-0.093-4.976c0.026,0.046,0.048,0.091,0.051,0.127
				c0.564,3.95,1.922,7.398,5.322,9.752c2.512,1.738,6.76,3.652,9.926,2.439c-4.799-5.462-5.439-14.592-2.988-21.064
				c0.191-0.506,1.054,0.318,0.955,0.711c-1.218,4.878-1.756,9.166-0.099,14.07c1.556,4.607,5.361,8.317,10.17,9.228
				c11.645,2.205,11.919-14.745,11.623-22.107c-0.019-0.415,0.52-0.074,0.536,0.193c0.349,6.381,1.093,13.046-1.939,18.929
				c-0.432,0.837-0.966,1.549-1.576,2.145c6.411,1.818,12.586-0.977,15.287-7.253c0.441-1.03,0.79-2.181,1.036-3.396
				c0.592-1.56,0.993-3.179,1.185-4.754c0.166-1.377,0.121-2.673-0.084-3.912c0.479,1.846,0.69,3.771,0.612,5.597
				c-0.206,4.871-1.735,9.89-5.572,13.065c-3.691,3.055-8.476,3.565-12.7,1.645c-0.141-0.064-0.29-0.242-0.402-0.434
				c-2.635,2.072-6.377,2.342-9.673,1.389c-2.207-0.639-4.045-1.751-5.542-3.186c-3.258,2.953-9.374-0.86-12.142-2.777
				C147.424,336.8,146.069,334.769,145.262,332.569z"/>
			<path style="fill:#E4E5E6;" d="M148.444,316.875c-0.587,1.815-0.79,3.755-0.48,5.71c0.631,3.992,2.502,8.16,6.464,9.738
				c0.271,0.107,0.611-0.116,0.675-0.383c0.602-2.539,0.136-5.178,1.032-7.667c0.142-0.398,0.309-0.783,0.468-1.173
				c-0.002,0.327,0.014,0.653,0.063,0.981c0.403,2.75,1.434,5.541,3.211,7.712c2.868,3.501,7.535,5.903,12.102,4.309
				c6.853-2.395,7.794-10.659,7.026-17.157c3.382,5.242,2.486,12.523,0.77,18.224c-0.104,0.345,0.18,0.691,0.528,0.693
				c4.892,0.032,10.323-1.262,12.316-6.295c1.925-4.857,0.76-9.503-2.026-13.416c1.718,1.563,3.063,3.591,3.777,5.743
				c1.326,3.999,0.347,7.653-0.655,11.59c-0.143,0.56,0.51,0.88,0.917,0.535c2.987-2.537,5.047-5.461,5.315-9.265
				c0.189,2.226-0.193,4.623-1.252,7.159c-6.841,16.393-50.632,11.941-53.174-2.326
				C145.362,330.688,142.835,322.867,148.444,316.875z"/>
		</g>
	</g>
</g>
</svg>
